<svg id="Lag_1" data-name="Lag 1" xmlns="http://www.w3.org/2000/svg" viewBox="0 0 375.08 240.72">
  <path d="M328.28,207.55A42.24,42.24,0,0,0,325,204h0l-.09-.08h0a.3.3,0,0,0-.08-.08h0l-.08-.08h0a.6.6,0,0,1-.08-.08h0a.3.3,0,0,1-.08-.08h0l-.09-.08h0a.6.6,0,0,0-.08-.08h0l-.08-.09h0a.3.3,0,0,1-.08-.08h0l-.09-.08h0a.3.3,0,0,0-.08-.08h0l-.08-.08h0a.6.6,0,0,1-.08-.08h0a.3.3,0,0,1-.08-.08h0l-.09-.08h0a.3.3,0,0,0-.08-.08h0l-.08-.09h0l-.08-.08h0l-.09-.08h0a.3.3,0,0,0-.08-.08h0l-.08-.08h0l-.08-.08h0a.3.3,0,0,1-.08-.08h0l-.09-.08h0a.3.3,0,0,0-.08-.08h0l-.08-.09h0l-.08-.08h0a.3.3,0,0,1-.08-.08h0a.3.3,0,0,0-.08-.08h0a.6.6,0,0,0-.08-.08h0l-.08-.09h0a.3.3,0,0,1-.08-.08h0l-.09-.08h0a.3.3,0,0,0-.08-.08h0l-.08-.08h0l-.08-.08h0a.3.3,0,0,1-.08-.08h0l-.09-.08h0l-.08-.08h0l-.08-.09h0l-.08-.08h0l-.09-.08h0a.3.3,0,0,0-.08-.08h0l-.08-.08h0a.6.6,0,0,1-.08-.08h0l-.08-.08h0a.6.6,0,0,0-.08-.08h0a.3.3,0,0,0-.08-.08h0L321,200h0l-.08-.08h0a.3.3,0,0,1-.08-.08h0a.3.3,0,0,0-.08-.08h0l-.08-.08h0l-.08-.09h0a.3.3,0,0,1-.08-.08h0l-.09-.08h0a.3.3,0,0,0-.08-.08h0l-.08-.09h0l-.08-.08h0l-.08-.08h0L320,199h0a.6.6,0,0,0-.08-.08h0l-.08-.09h0a.3.3,0,0,1-.08-.08h0l-.09-.08h0a.3.3,0,0,0-.08-.08h0l-.08-.08h0a.6.6,0,0,1-.08-.08h0a.3.3,0,0,1-.08-.08h0l-.08-.08h0a.3.3,0,0,0-.08-.08h0l-.08-.09h0A.3.3,0,0,1,319,198h0l-.09-.08h0a.3.3,0,0,0-.08-.08h0l-.08-.08h0a.6.6,0,0,1-.08-.08h0a.3.3,0,0,1-.08-.08h0l-.09-.08h0a.3.3,0,0,0-.08-.08h0l-.08-.09h0l-.08-.08h0a.3.3,0,0,1-.08-.08h0a.3.3,0,0,0-.08-.08h0l-.08-.08h0l-.08-.09h0a.3.3,0,0,1-.08-.08h0l-.09-.08h0a.3.3,0,0,0-.08-.08h0l-.08-.09h0l-.08-.08h0a.3.3,0,0,1-.08-.08h0a.3.3,0,0,0-.08-.08h0l-.08-.08h0l-.08-.09h0a.3.3,0,0,1-.08-.08h0l-.09-.08h0a.3.3,0,0,0-.08-.08h0a.6.6,0,0,0-.08-.08h0l-.08-.08h0a.3.3,0,0,1-.08-.08h0a.3.3,0,0,0-.08-.08h0a.6.6,0,0,0-.08-.08h0l-.08-.09h0a.3.3,0,0,1-.08-.08h0l-.09-.08h0a.3.3,0,0,0-.08-.08h0l-.08-.08h0l-.08-.08h0a.3.3,0,0,1-.08-.08h0l-.09-.08h0l-.08-.08h0l-.08-.09h0l-.08-.08h0a.3.3,0,0,1-.08-.08h0l-.09-.08h0l-.08-.08h0l-.08-.09h0l-.08-.08h0l-.09-.08h0a.3.3,0,0,0-.08-.08h0A.6.6,0,0,0,315,194h0l-.08-.08h0a.3.3,0,0,1-.08-.08h0a.3.3,0,0,0-.08-.08h0a.3.3,0,0,0-.08-.08h0l-.08-.09h0a.3.3,0,0,1-.08-.08h0l-.09-.08h0a.3.3,0,0,0-.08-.08h0a.6.6,0,0,0-.08-.08h0l-.08-.08h0l-.08-.08h0L314,193h0a.3.3,0,0,0-.08-.08h0l-.08-.09h0a.3.3,0,0,1-.08-.08h0l-.09-.08h0a.3.3,0,0,0-.08-.08h0l-.08-.08h0l-.08-.09h0a.3.3,0,0,1-.08-.08h0l-.09-.08h0a.3.3,0,0,0-.08-.08h0l-.08-.09h0A.6.6,0,0,1,313,192h0a.3.3,0,0,1-.08-.08h0a.3.3,0,0,0-.08-.08h0l-.08-.08h0l-.08-.09h0a.3.3,0,0,1-.08-.08h0l-.09-.08h0a.3.3,0,0,0-.08-.08h0a.6.6,0,0,0-.08-.08h0l-.08-.08h0a.3.3,0,0,1-.08-.08h0a.3.3,0,0,0-.08-.08h0l-.08-.08h0l-.08-.09h0a.3.3,0,0,1-.08-.08h0l-.09-.08h0a.3.3,0,0,0-.08-.08h0a.6.6,0,0,0-.08-.08h0l-.08-.08h0a.3.3,0,0,1-.08-.08h0l-.09-.08h0l-.08-.08h0l-.08-.09h0a.6.6,0,0,1-.08-.08h0a.3.3,0,0,1-.08-.08h0a.3.3,0,0,0-.08-.08h0a.6.6,0,0,0-.08-.08h0l-.08-.09h0a.3.3,0,0,1-.08-.08h0l-.09-.08h0a.3.3,0,0,0-.08-.08h0l-.08-.09h0a.6.6,0,0,1-.08-.08h0l-.08-.08h0a.3.3,0,0,0-.08-.08h0l-.08-.08h0l-.08-.08h0a.3.3,0,0,1-.08-.08h0l-.09-.08h0l-.08-.08h0a.6.6,0,0,0-.08-.08h0l-.08-.08h0a.3.3,0,0,1-.08-.08h0a.3.3,0,0,0-.08-.08h0l-.08-.08h0l-.08-.09h0l-.08-.08h0l-.09-.08h0a.3.3,0,0,0-.08-.08h0A.6.6,0,0,0,309,188h0l-.08-.09h0a.3.3,0,0,1-.08-.08h0l-.09-.08h0a.3.3,0,0,0-.08-.08h0l-.08-.09c-8.75-8.25-21.18-12.63-37-12.63s-28.21,4.38-37,12.63a42.14,42.14,0,0,0-3.3,3.51,44.59,44.59,0,0,0-6.51,10.53c-3.5,7.83-5.29,17.29-5.29,28.2V343.32c0,18.55,5.19,32.88,15.1,42.23l.09.09.08.08.08.08.08.08.08.08.09.09.08.08.08.08.08.08.08.09.09.08.08.08.08.08.08.08.09.09.08.08.08.08.08.08.08.08.09.09.08.08.08.08.08.08.09.09.08.08.08.08.08.08.08.08.09.09.08.08.08.08.08.08.09.09.08.08.08.08.08.08.08.08.09.09.08.08.08.08.08.08.08.08.09.09.08.08.08.08.08.08.09.09.08.08.08.08.08.08.08.08.09.09.08.08.08.08.08.08.09.09.08.08.08.08.08.08.08.08.09.09.08.08.08.08a.6.6,0,0,0,.08.08l.09.09.08.08.08.08.08.08.08.08.09.09.08.08.08.08.08.08.08.08.09.09.08.08.08.08.08.08.09.09.08.08.08.08.08.08.08.08.09.09.08.08.08.08.08.08.09.09.08.08.08.08.08.08.08.08.09.09.08.08.08.08a.6.6,0,0,0,.08.08l.09.09.08.08.08.08.08.08.08.08.09.09.08.08.08.08.08.08.08.08.09.09.08.08.08.08.08.08.09.09.08.08.08.08.08.08.08.08.09.09.08.08.08.08.08.08.09.09.08.08.08.08.08.08.08.08.09.09.08.08.08.08.08.08.08.08.09.09.08.08.08.08.08.08.09.09.08.08.08.08a.6.6,0,0,0,.08.08l.08.09.09.08.08.08.08.08.08.08.09.09.08.08.08.08.08.08.08.08.09.09.08.08.08.08.08.08.09.09.08.08.08.08.08.08.08.08.09.09.08.08.08.08.08.08.08.08.09.09.08.08.08.08.08.08.09.09.08.08.08.08a.6.6,0,0,0,.08.08l.08.08.09.09.08.08.08.08.08.08.09.09.08.08.08.08.08.08.08.08.09.09.08.08.08.08.08.08.08.08.09.09.08.08.08.08.08.08.09.09.08.08a.6.6,0,0,1,.08.08l.08.08.09.09.08.08.08.08.08.08.08.08.09.09.08.08c8.75,8.3,21.2,12.72,37,12.72,33.67,0,52.06-19.95,52.06-54.87V246.27c0-10.91-1.79-20.36-5.29-28.2A44.73,44.73,0,0,0,328.28,207.55Zm-58,154.39V244.09c0-5.36.81-9.57,2.31-12.8,2.33-5,6.33-7.61,11.56-8.43.62-.09,1.25-.16,1.9-.21s1.32-.07,2-.07c.36,0,.7,0,1.05,0a41.54,41.54,0,0,1,.28,5V345.5a44.94,44.94,0,0,1-.31,5.4c-.11.83-.24,1.62-.39,2.38a26.49,26.49,0,0,1-.86,3.17,18.31,18.31,0,0,1-.76,1.85,16.51,16.51,0,0,1-.89,1.67,14.35,14.35,0,0,1-1.58,2.13,12.78,12.78,0,0,1-1.88,1.73,12.14,12.14,0,0,1-1.4.93,15.44,15.44,0,0,1-4,1.61c-.58.14-1.18.26-1.79.36s-1.25.17-1.9.21-1.32.08-2,.08c-.36,0-.7,0-1.05,0A43.85,43.85,0,0,1,270.25,361.94Z" transform="translate(-218.69 -174.14)" fill="#b54558"/>
  <path d="M445.86,302.79l-.09-.09-.08-.08-.08-.08-.08-.08-.08-.08-.09-.09-.08-.08-.08-.08-.08-.09L445,302l-.08-.08-.08-.08-.08-.08-.09-.09-.08-.08-.08-.08-.08-.08-.08-.09-.09-.08-.08-.08-.08-.08-.08-.08-.09-.09-.08-.08-.08-.08-.08-.08-.08-.08-.09-.09-.08-.08-.08-.08-.09-.09-.08-.08-.08-.08-.08-.08-.08-.08-.09-.09-.08-.08-.08-.08-.08-.08-.08-.08-.09-.09-.08-.08-.08-.08-.08-.08-.08-.08-.09-.09-.08-.08-.08-.08-.08-.08-.08-.08-.09-.09-.08-.08-.08-.08-.08-.08-.08-.08-.09-.09-.08-.08-.08-.08-.08-.08-.08-.08-.09-.09-.08-.08-.08-.08-.09-.09-.08-.08-.08-.08-.08-.08-.08-.08-.09-.09-.08-.08L440,297l-.08-.08-.08-.09-.09-.08-.08-.08-.08-.08-.08-.08-.09-.09-.08-.08-.08-.08-.08-.08-.08-.09L439,296l-.08-.08-.08-.08-.09-.09-.08-.08-.08-.08-.08-.08-.08-.08-.09-.09-.08-.08-.08-.08-.08-.08-.08-.08-.09-.09-.08-.08a.6.6,0,0,0-.08-.08l-.08-.08-.08-.08-.09-.09-.08-.08-.08-.08-.08-.08-.08-.08-.09-.09-.08-.08-.08-.08-.08-.08-.08-.08-.09-.09-.08-.08a.6.6,0,0,0-.08-.08l-.08-.08-.08-.09-.09-.08-.08-.08-.08-.08-.09-.09-.08-.08-.08-.08-.08-.08-.08-.08-.09-.09-.08-.08-.08-.08-.08-.08-.09-.09-.08-.08-.08-.08-.08-.08-.08-.08-.09-.09-.08-.08-.08-.08-.08-.09-.08-.08-.09-.08-.08-.08-.08-.08-.09-.09-.08-.08-.08-.08L434,291l-.08-.08-.09-.09-.08-.08-.08-.08-.08-.08-.08-.08-.09-.09-.08-.08-.08-.08-.08-.08-.08-.08L433,290l-.08-.08-.08-.08-.08-.08-.08-.08-.09-.09-.08-.08-.08-.08-.08-.08-.08-.08-.09-.09-.08-.08-.08-.08-.08-.09-.08-.08-.09-.08-.08-.08-.08-.08-.09-.09-.08-.08-.08-.08-.08-.08-.08-.08-.09-.09-.08-.08-.08-.08-.08-.08-.09-.09-.08-.08-.08-.08-.08-.08-.08-.08-.09-.09-.08-.08-.08-.08-.08-.09-.08-.08-.09-.08-.08-.08-.08-.08-.09-.09-.08-.08-.08-.08-.08-.08c-4.15-4.19-8.48-8.11-12.69-12-7.23-8.64-12.19-18.15-12.19-30.37,0-15.59,6.23-21.51,17.14-21.51h.46a49.52,49.52,0,0,1,.25,5.06v9h.09v.08h.08v.08h.08v.08h.08V237h.08v.09H423v.08h.08v.08h.08v.08h.08v.09h.08v.08h.09v.08h.08v.08h.08v.08h.08v.09h.09v.08h.08V238h.08v.08H424v.09H424v.08h.09v.08h.08v.08h.08v.08h.08v.09h.09v.08h.08v.08h.08v.08h.08v.08h.08V239h.09v.08h.08v.08H425v.08h.08v.09h.09v.08h.08v.08h.08v.08h.08v.08h.08v.09h.09v.08h.08v.08h.08V240h.08v.09h.08v.08H426v.08h.08v.08h.08v.08h.08v.09h.09v.08h.08v.08h.08v.08h.08v.09h.08v.08h.09V241h.08v.08h.08v.08H427v.09h.09v.08h.08v.08h.08v.08h.08v.08h.08v.09h.09v.08h.08v.08h.08v.08h.08V242h.09V242h.08v.08H428v.08h.08v.08h.08v.09h.09v.08h.08v.08h.08v.08h.08v.09h.08v.08h.09v.08h.08v.08h.08V243h.08v.09H429v.08h.08v.08h.08v.08h.08v.09h.08v.08h.09v.08h.08v.08h.08v.08h.08v.09h.09v.08h.08V244h.08v.08H430v.08H430v.09h.09v.08h.08v.08h.08v.08h.08v.09h.09v.08h.08v.08h.08v.08h.08v.08h.08V245h.09v.08h.08v.08H431v.08h.08v.09h.08v.08h.09v.08h.08v.08h.08v.08h.08v.09h.09v.08h.08v.08h.08V246h.08v.09h.08v.08H432v.08h.08v.08h.08v.08h.08v.09h.09v.08h.08v.08h.08v.08h.08v.08h.08v.09h.09V247h.08v.08h.08v.08H433v.09h.08v.08h.09v.08h.08v.08h.08v.08h.08v.09h.09v.08h.08v.08h.08v.08h.08V248h.08V248h.09v.08H434v.08h.08v.08h.08v.09h.09v.08h.08v.08h.08v.08h.08v.08h.08v.09h.09v.08h.08v.08h.08V249h.08v.09H435v.08h.08v.08h.08v.08h.08v.08h.08v.09h.09v.08h.08v.08h.08v.08h.08v.09h.08v.08h.09V250h.08v.08H436v.08H436v.09h.09v.08h.08v.08h.08v.08h.08v.09h.08v.08h.09v.08h.08v.08h.08v.08h.08V251h.09v.08h.08v.08H437v.08h.08v.08h.08v.09h.09v.08h.08v.08h.08v.08h.08v.09h.09v.08h.08v.08h.08V252h.08v.08h.08v.09H438v.08h.08v.08h.08v.08h.08v.09h.08v.08h.09v.08h.08v.08h.08v.08h.08v.09h.09V253h.08v.08h.08v.08h32.42v-6.86c0-10.91-1.67-20.36-5-28.2a44.49,44.49,0,0,0-6.21-10.52c-.5-.62-1-1.22-1.54-1.81-.4-.44-.82-.88-1.25-1.3l-.08-.08-.08-.09-.09-.08-.08-.08-.08-.08-.08-.08-.08-.09-.09-.08-.08-.08-.08-.08-.08-.09-.09-.08-.08-.08-.08-.08-.08-.08-.08-.09-.09-.08-.08-.08-.08-.08-.08-.08-.09-.09-.08-.08-.08-.08-.08-.08-.08-.08-.09-.09-.08-.08-.08-.08-.08-.08-.08-.09-.09-.08-.08-.08-.08-.08-.08-.09-.09-.08-.08-.08-.08-.08-.08-.08-.08-.09-.09-.08-.08-.08-.08-.08-.08-.08-.09-.09-.08-.08-.08-.08-.08-.08-.08-.09-.09-.08-.08-.08-.08-.08-.08-.08-.08-.09-.09-.08-.08-.08-.08-.08-.08-.09-.09-.08-.08-.08-.08-.08-.08-.08-.08-.09-.09-.08-.08-.08-.08-.08-.08-.09-.09-.08-.08-.08-.08-.08-.08-.08-.08-.09-.09-.08-.08-.08-.08-.08-.08-.08-.09-.09-.08-.08-.08-.08-.08-.08-.08-.09-.09-.08-.08-.08-.08-.08-.08-.08-.08-.09-.09-.08-.08-.08-.08-.08-.08-.09-.09-.08-.08-.08-.08-.08-.08-.08-.08-.09-.09-.08-.08-.08-.08-.08-.08-.09-.09-.08-.08-.08-.08-.08-.08-.08-.08-.09-.09-.08-.08-.08-.08-.08-.08-.08-.09-.09-.08-.08-.08-.08-.08-.08-.08-.09-.09-.08-.08-.08-.08-.08-.08-.08-.08-.09-.09-.08-.08-.08-.08-.08-.08-.09-.09-.08-.08-.08-.08-.08-.08-.08-.08-.09-.09-.08-.08-.08-.08-.08-.08-.08-.09-.09-.08-.08-.08-.08-.08-.08-.08-.09-.09-.08-.08-.08-.08-.08-.08-.08-.08-.09-.09-.08-.08-.08-.08-.08-.08-.09-.09-.08-.08-.08-.08-.08-.08-.08-.08-.09-.09-.08-.08-.08-.08-.08-.08-.09-.09-.08-.08-.08-.08-.08-.08-.08-.08-.09-.09-.08-.08-.08-.08-.08-.08-.08-.09-.09-.08-.08-.08-.08-.08-.08-.08-.09-.09-.08-.08-.08-.08-.08-.08-.09-.08-.08-.09-.08-.08-.08-.08-.08-.08-.09-.09-.08-.08-.08-.08-.08-.08-.08-.09-.09-.08-.08-.08-.08-.08-.08-.08-.08-.09-.09-.08-.08-.08-.08-.08-.08-.08-.09-.09-.08-.08-.08-.08-.08-.08-.08-.08-.09-.09-.08-.08-.08-.08-.08-.08-.09c-.43-.42-.86-.84-1.3-1.24-.62-.57-1.26-1.13-1.91-1.66s-1.07-.85-1.63-1.25c-8-5.87-18.64-9-31.76-9-15.64,0-27.71,4.38-36.13,12.63a40.64,40.64,0,0,0-3.17,3.51,44.36,44.36,0,0,0-6.21,10.53c-3.32,7.83-5,17.29-5,28.2,0,26.34,12,43.06,25.8,57l.08.08.08.08.08.09.08.08.09.08.08.08.08.09.08.08.08.08.09.08.08.08.08.09.09.08.07.08.09.08.08.09.08.08.09.08.07.08.09.08.08.09.08.08.09.08.08.08.08.09.08.08.08.08.09.08.08.08.08.09.08.08.09.08.08.08.08.08.08.09.08.08.09.08.08.09.08.07.08.09.08.08.09.08.08.09.08.07.08.09.09.08.08.08.08.09.08.08.08.08.09.08.08.08.08.09.08.08.09.08.08.08.08.08.08.09.08.08.09.08.08.08.08.09.08.08.08.08.09.08.08.08.08.09.09.08.07.08.09.08.08.09.08.08.09.08.07.08.09.08.08.09.08.08.09.08.08.08.08.09.08.08.08.08.09.08.08.08.08.09.08.08.09.08.08.08.08.08.08.09.08.08.09.08.08.09.08.07.08.09.08.08.09.08.08.09.08.07.08.09.09.08.08.08.08.09.08.08.08.08.09.08.08.08.08.09.08.08.09.08.08.08.08.09.08.08.08.08.09.08.08.08.08.09.08.08.08.08.09.08.08.08.08.09.09.08.07.08.09.08.08.09.08.08.09.08.08.08.08.08.08.09.08.08.09.08.08.08.08.09.08.08.08.08.09.08.08.08.08.09.08.08.09.08.08.08.08.08.08.09.08.08.09.08.08.09.08.07.08.09.09.08.08.08.08.09.08.07.08.09.09.08.08.08.08.09.08.08.08.08.09.08.08.08.08.09.08.08.09.08.08.08.08.09.08.08.08.08.09.08.08.08.08.09.09.08.07.08.09.08.08.09.08.08.09.08.07.08.09.08.08.09.08.08.09.08.08.08.08.08.08.09.08.08.09.08.08.08.08.09.08.08.08.08.09.08.08.08.08.09.08.08.09.08.08.09.08.07c4.15,4.19,8.47,8.12,12.69,12,7.23,8.63,12.19,18.15,12.19,30.36,0,15.59-6.85,21.2-17.77,21.2h-1.08a43.67,43.67,0,0,1-.25-4.74V346.35h-.08v-.08h-.08v-.08h-.09v-.08h-.08V346h-.08v-.08h-.08v-.08h-.09v-.08h-.08v-.09h-.08v-.08H401v-.08h-.08v-.08h-.09v-.08h-.08v-.09h-.08v-.08h-.08v-.08h-.09V345h-.08V345h-.08v-.08h-.08v-.08h-.08v-.08h-.09v-.08H400v-.09h-.08v-.08h-.08v-.08h-.08v-.08h-.09v-.09h-.08v-.08h-.08v-.08h-.08V344h-.09v-.08h-.08v-.09h-.08v-.08h-.08v-.08H399v-.08h-.09v-.08h-.08v-.09h-.08v-.08h-.08v-.08h-.09v-.08h-.08v-.09h-.08V343h-.08v-.08h-.08v-.08h-.09v-.08h-.08v-.09H398v-.08H398v-.08h-.09v-.08h-.08v-.09h-.08v-.08h-.08v-.08h-.08v-.08h-.09V342h-.08v-.09h-.08v-.08h-.08v-.08h-.08v-.08H397v-.09H397v-.08h-.08v-.08h-.08v-.08h-.09v-.08h-.08v-.09h-.08v-.08h-.08V341h-.08v-.08h-.09v-.08h-.08v-.09h-.08v-.08h-.08v-.08H396v-.08h-.08v-.09h-.08v-.08h-.08v-.08h-.08v-.08h-.09v-.08h-.08V340h-.08v-.08h-.08v-.08h-.09v-.08h-.08v-.09h-.08v-.08H395v-.08h-.08v-.08h-.09v-.08h-.08v-.09h-.08v-.08h-.08v-.08h-.08V339h-.09V339h-.08v-.09h-.08v-.08h-.08v-.08h-.09v-.08H394v-.09h-.08v-.08h-.08v-.08h-.08v-.08h-.09v-.08h-.08v-.09h-.08v-.08h-.08V338h-.09v-.08h-.08v-.09h-.08v-.08h-.08v-.08H393v-.08h-.09v-.08h-.08v-.09h-.08v-.08h-.08v-.08h-.09v-.08h-.08v-.09h-.08V337h-.08v-.08h-.08v-.08h-.09v-.08h-.08v-.09H392v-.08H392v-.08h-.08v-.08h-.09v-.08h-.08v-.09h-.08v-.08h-.08v-.08h-.09V336h-.08v-.09h-.08v-.08h-.08v-.08h-.08v-.08H391v-.08H391v-.09h-.08v-.08h-.08v-.08h-.09v-.08h-.08v-.09h-.08v-.08h-.08V335h-.08v-.08h-.09v-.08h-.08v-.09h-.08v-.08h-.08v-.08H390v-.08h-.08v-.09h-.08v-.08h-.08v-.08h-.08v-.08h-.09v-.08h-.08V334h-.08v-.08h-.08v-.08h-.08v-.08h-.09v-.08h-.08v-.09H389v-.08h-.08v-.08h-.09v-.08h-.08v-.09h-.08v-.08h-.08v-.08h-.08V333h-.09V333h-.08v-.09h-.08v-.08h-.08v-.08h-.09v-.08H388v-.09h-.08v-.08h-.08v-.08h-.08v-.08h-.09v-.08h-.08v-.09h-.08v-.08h-.08V332h-.08v-.08h-.09v-.09h-.08v-.08h-.08v-.08H387v-.08h-.09v-.08h-.08v-.09h-.08v-.08h-.08v-.08h-.08v-.08h-.09v-.08h-.08V331h-.08v-.08h-.08v-.08h-.09v-.08h-.08v-.09H386v-.08H386v-.08h-.08v-.08h-.09v-.08h-.08v-.09h-.08v-.08h-.08v-.08h-.09V330h-.08v-.09H353v13.41c0,18.56,4.93,32.9,14.61,42.25l.09.08.08.08.08.09.08.08.08.08.09.08.08.09.08.08.08.08.09.08.08.08.08.09.08.08a.6.6,0,0,1,.08.08l.09.08.08.09.08.08a.3.3,0,0,1,.08.08l.08.08.09.08.08.09.08.08.08.08.09.08a.3.3,0,0,0,.08.08l.08.09.08.08.09.08.08.08.08.09a.6.6,0,0,1,.08.08l.08.08.09.08.08.08.08.09.08.08.08.08.09.08a.3.3,0,0,0,.08.08l.08.09.08.08.09.08.08.08.08.09.08.08a.6.6,0,0,1,.08.08l.09.08.08.09.08.08a.6.6,0,0,1,.08.08l.08.08.09.08.08.09.08.08.08.08.09.08.08.08.08.09.08.08.08.08.09.08.08.09.08.08.08.08.09.08a.3.3,0,0,0,.08.08l.08.09.08.08.08.08.09.08.08.09a.6.6,0,0,1,.08.08l.08.08.08.08.09.08.08.09.08.08.08.08.09.08.08.08.08.09.08.08.09.08.08.08.08.09.08.08a.6.6,0,0,1,.08.08l.09.08.08.08.08.09a.6.6,0,0,1,.08.08l.08.08.09.08.08.09.08.08.08.08.09.08a.3.3,0,0,0,.08.08l.08.09.08.08.08.08.09.08.08.09a.6.6,0,0,1,.08.08l.08.08.09.08.08.08.08.09.08.08.08.08.09.08a.3.3,0,0,0,.08.08l.08.09.08.08.08.08.09.08.08.09.08.08a.6.6,0,0,1,.08.08l.09.08.08.08.08.09a.6.6,0,0,1,.08.08l.08.08.09.08.08.09.08.08.08.08.08.08.09.08.08.09.08.08.08.08.09.08.08.09.08.08.08.08.09.08a.3.3,0,0,0,.08.08l.08.09.08.08.08.08.09.08a.3.3,0,0,0,.08.08l.08.09.08.08.08.08.09.08.08.09.08.08.08.08.09.08.08.08.08.09.08.08.08.08.09.08.08.09.08.08a.3.3,0,0,1,.08.08l.09.08.08.08.08.09a.6.6,0,0,1,.08.08l.08.08.09.08.08.09.08.08.08.08a.6.6,0,0,1,.08.08l.09.08.08.09.08.08.08.08.09.08.08.08.08.09.08.08.08.08.09.08.08.09.08.08.08.08.09.08a.3.3,0,0,0,.08.08l.08.09.08.08.08.08.09.08.08.09.08.08a.3.3,0,0,1,.08.08l.09.08.08.08.08.09a.6.6,0,0,1,.08.08l.08.08.09.08.08.08c8.53,8.3,20.77,12.71,36.6,12.71a67.18,67.18,0,0,0,17.22-2.07,44.66,44.66,0,0,0,15.7-7.48,40.58,40.58,0,0,0,10.91-12.62c.8-1.43,1.54-2.94,2.22-4.5a55.38,55.38,0,0,0,2.58-7.49c.48-1.76.88-3.58,1.22-5.46a86,86,0,0,0,1.28-15.25C471.65,333.41,459.68,316.69,445.86,302.79Z" transform="translate(-218.69 -174.14)" fill="#b54558"/>
  <path d="M420.52,414.86c-15.68,0-28-4.3-36.76-12.77h0l-.71-.71.1-.23-.17.16-1.09-1.08.1-.23-.16.16-.59-.58.1-.24-.17.17-2-2,.09-.23-.16.16-1.83-1.82.1-.23-.16.16-1.74-1.74.09-.23-.16.16-.84-.84.1-.22-.16.16-.43-.43.1-.23-.17.17-.58-.59.09-.23-.16.16-1.83-1.82.1-.23-.17.16-2-2,.09-.23-.16.16-.59-.59.1-.23-.17.17-.43-.44.1-.22-.16.16-.59-.58.1-.24-.17.17-.18-.18c-9.77-9.45-14.71-23.72-14.71-42.45V329.68H385.6v.08h.09v.09h.08v.08h.08V330h.08v.08H386v.09h.08v.08h.08v.08h.08v.08h.08v.08h.09v.09h.08v.08h.08v.08h.08v.08h.09v.08h.08V331h.08v.08H387v.08h.08v.08h.09v.09h.08v.08h.08v.08h.08v.08h.09v.08h.08v.09h.08v.08h.08v.08h.08V332h.09v.09H388v.08h.08v.08h.08v.08h.08v.08h.09v.09h.08v.08h.08v.08h.08v.08h.09v.09h.08v.08h.08V333h.08v.08H389v.08h.09v.09h.08v.08h.08v.08h.08v.08h.09v.08h.08v.09h.08v.08h.08v.08h.08v.08h.09V334h.08V334H390v.08H390v.08h.09v.08h.08v.09h.08v.08h.08v.08h.08v.08h.09v.09h.08v.08h.08v.08h.08v.08h.09V335H391v.09H391v.08h.08v.08h.08v.08h.09v.08h.08v.09h.08v.08h.08v.08h.08v.08h.09v.09h.08v.08h.08V336h.08v.08H392v.08h.08v.09h.08v.08h.08v.08h.08v.08h.09v.09h.08v.08h.08v.08h.08v.08h.09v.08h.08V337h.08v.08H393v.08h.08v.08h.09v.09h.08v.08h.08v.08h.08v.08h.08v.08h.09v.09h.08v.08h.08v.08h.08V338h.09v.08H394v.09h.08v.08h.08v.08h.08v.08h.09v.09h.08v.08h.08v.08h.08v.08h.09v.08h.08v.09h.08V339h.08v.08H395v.08h.09v.09h.08v.08h.08v.08h.08v.08h.09v.08h.08v.09h.08v.08h.08v.08h.08v.08h.09V340h.08V340H396v.08H396v.08h.08v.08h.09v.09h.08v.08h.08v.08h.08v.08h.09v.08h.08v.09h.08v.08h.08v.08h.08V341H397v.09H397v.08h.08v.08h.08v.08h.09v.08h.08v.09h.08v.08h.08v.08h.08v.08h.09v.09h.08v.08h.08V342h.08v.08H398v.08h.08v.09h.08v.08h.08v.08h.08v.08h.09v.09h.08v.08h.08v.08h.08v.08h.08v.08h.09V343h.08v.08H399v.08h.08v.08h.09v.08h.08v.09h.08v.08h.08v.08h.08v.08h.09v.09h.08v.08h.08v.08h.08V344h.09v.08H400v.09h.08v.08h.08v.08h.08v.08h.09v.09h.08v.08h.08v.08h.08v.08h.08v.08h.09v.09h.08V345h.08v.08H401v.08h.09v.09h.08v.08h.08v.08h.08v.08h.08v.08h.09v.09h.08v.08h.08v.08h.08v.08h.09V346h.08V346H402v.08H402v15.82a44.4,44.4,0,0,0,.23,4.52h.87c11.8,0,17.54-6.86,17.54-21,0-10.71-3.86-20.31-12.14-30.21l-.74-.68c-3.95-3.61-8-7.35-11.94-11.28l-10.07-10.08.09-.23-.16.16L379.51,287c-12.79-12.86-25.86-29.71-25.86-57.13,0-10.92,1.69-20.44,5-28.29A44.58,44.58,0,0,1,364.91,191a39.68,39.68,0,0,1,3.19-3.53c8.6-8.43,20.81-12.71,36.29-12.71,13,0,23.7,3,31.9,9,.55.4,1.1.83,1.64,1.26s1.29,1.09,1.92,1.67c.44.41.87.82,1.3,1.25l16.36,16.36c.46.45.87.88,1.25,1.31.53.58,1.05,1.19,1.55,1.81A44.78,44.78,0,0,1,466.55,218c3.33,7.86,5,17.37,5,28.29v7.1H438.68v-.09h-.08v-.08h-.08v-.08h-.08V253h-.08V253h-.08v-.08h-.09v-.08h-.08v-.08H438v-.08h-.08v-.09h-.08v-.08h-.09v-.08h-.08v-.08h-.08v-.09h-.08v-.08h-.09v-.08h-.08V252h-.08v-.08h-.08v-.09h-.08v-.08H437v-.08H437v-.08h-.08v-.08h-.08v-.09h-.08v-.08h-.09v-.08h-.08v-.08h-.08v-.09h-.08V251h-.09v-.08h-.08v-.08h-.08v-.08h-.08v-.09H436v-.08h-.09v-.08h-.08v-.08h-.08v-.09h-.08v-.08h-.09v-.08h-.08v-.08h-.08V250h-.08v-.09h-.08v-.08h-.09v-.08h-.08v-.08H435v-.09h-.08v-.08h-.09v-.08h-.08v-.08h-.08v-.08h-.08v-.09h-.08v-.08h-.09V249h-.08v-.08h-.08v-.08h-.08v-.09h-.08v-.08H434v-.08h-.08v-.08h-.08v-.09h-.08v-.08h-.09v-.08h-.08v-.08h-.08v-.08h-.08V248h-.08v-.08h-.09v-.08h-.08v-.08h-.08v-.09H433v-.08h-.09v-.08h-.08v-.08h-.08v-.08h-.08v-.09h-.08v-.08h-.08v-.08h-.09V247h-.08V247h-.08v-.08h-.09v-.08h-.08v-.08H432v-.08h-.08v-.09h-.08v-.08h-.09v-.08h-.08v-.08h-.08v-.08h-.08v-.09h-.08v-.08h-.09V246h-.08v-.08h-.08v-.09h-.08v-.08H431v-.08H431v-.08h-.08v-.08h-.08v-.09h-.08v-.08h-.09v-.08h-.08v-.08h-.08v-.09h-.08V245h-.09v-.08h-.08v-.08h-.08v-.08h-.08v-.09H430v-.08h-.09v-.08h-.08v-.08h-.08v-.09h-.08v-.08h-.08v-.08h-.09v-.08h-.08V244h-.08v-.09h-.08v-.08h-.09v-.08h-.08v-.08H429v-.08h-.08v-.09h-.08v-.08h-.09v-.08h-.08v-.08h-.08v-.09h-.08v-.08h-.09V243h-.08v-.08h-.08v-.08h-.08v-.09h-.08v-.08H428v-.08h-.08v-.08h-.08v-.09h-.08v-.08h-.09v-.08h-.08v-.08h-.08v-.08h-.08V242h-.08v-.08h-.09v-.08h-.08v-.08h-.08v-.09H427v-.08h-.08v-.08h-.09v-.08h-.08v-.08h-.08v-.09h-.08v-.08h-.08v-.08h-.09V241h-.08V241h-.08v-.08h-.08v-.08h-.09v-.08H426v-.08h-.08v-.09h-.08v-.08h-.09v-.08h-.08v-.08h-.08v-.08h-.08v-.09h-.08v-.08h-.09V240h-.08v-.08h-.08v-.09h-.08v-.08H425v-.08H425v-.08h-.08v-.08h-.08v-.09h-.08v-.08h-.09v-.08h-.08v-.08h-.08v-.09h-.08V239h-.08v-.08h-.09v-.08h-.08v-.08h-.08v-.09H424v-.08h-.09v-.08h-.08v-.08h-.08v-.08h-.08v-.09h-.08v-.08h-.09v-.08h-.08V238h-.08v-.09h-.08v-.08h-.09v-.08h-.08v-.08H423v-.08h-.08v-.09h-.08v-.08h-.09v-.08h-.08v-.08h-.08v-.09h-.08v-.08h-.08V237h-.09v-.08h-.08v-9.28c0-1.69-.08-3.32-.23-4.83h-.25c-11.54,0-16.91,6.76-16.91,21.28,0,10.72,3.85,20.32,12.14,30.22l.73.66c3.95,3.62,8,7.36,11.94,11.3l1.55,1.54-.12.21.16-.17,2.82,2.83-.1.22.16-.17,2.82,2.82-.11.22.17-.16,2.82,2.82-.11.22.16-.17,2,2-.08.24.16-.17.1.1-.11.22.17-.16,3.91,3.91c12.79,12.87,25.86,29.72,25.86,57.14a86.51,86.51,0,0,1-1.28,15.29c-.34,1.88-.75,3.72-1.22,5.48a55.84,55.84,0,0,1-2.6,7.52,46.46,46.46,0,0,1-2.23,4.53,40.82,40.82,0,0,1-11,12.69,45,45,0,0,1-15.78,7.51A67.64,67.64,0,0,1,420.52,414.86Zm-39.44-16.11,3,3c8.66,8.42,20.91,12.68,36.47,12.68a67.15,67.15,0,0,0,17.16-2.07,44.43,44.43,0,0,0,15.62-7.43,40.63,40.63,0,0,0,10.84-12.55,44.57,44.57,0,0,0,2.21-4.49,54.34,54.34,0,0,0,2.58-7.45c.47-1.74.88-3.57,1.21-5.44a85.62,85.62,0,0,0,1.27-15.21c0-27.25-13-44-25.72-56.81h0l-.87-.87.09-.24-.16.16-.05,0-6.46-6.46.11-.22-.17.16-2.82-2.82.11-.22-.16.16-.69-.68.1-.23-.16.16-1.25-1.24.11-.22-.17.16-1.5-1.5.09-.24-.16.17-1.25-1.25.11-.22-.16.16-1-1c-3.91-3.93-8-7.66-11.94-11.28l-.75-.68c-8.38-10-12.27-19.71-12.27-30.54,0-14.83,5.53-21.74,17.38-21.74h.67l0,.2a48.39,48.39,0,0,1,.26,5.09v8.81h.08v.09h.08v.08H423v.08H423v.08h.09v.08h.08V237h.08V237h.08v.08h.09v.08h.08v.09h.08v.08h.08v.08h.08v.08h.09v.08h.08v.09H424v.08h.08v.08h.08v.08h.09V238h.08v.09h.08v.08h.08v.08h.09v.08h.08v.09h.08v.08h.08v.08h.08v.08H425v.08h.08v.09h.08v.08h.08V239h.09v.08h.08v.09h.08v.08h.08v.08h.08v.08h.09v.08h.08v.09h.08v.08H426v.08h.09v.08h.08v.08h.08V240h.08v.08h.08v.08h.09v.08h.08v.09h.08v.08h.08v.08h.08v.08h.09v.08H427v.09h.08v.08h.08v.08h.09V241h.08v.09h.08v.08h.08v.08h.08v.08h.09v.08h.08v.09h.08v.08h.08v.08H428v.08h.08v.09h.08v.08h.08V242h.08v.08h.09v.08h.08v.09h.08v.08h.08v.08h.08v.08h.09v.08h.08v.09H429v.08H429v.08h.09v.08h.08V243h.08V243h.08v.08h.08v.08h.09v.08h.08v.09h.08v.08h.08v.08h.09v.08h.08v.09H430v.08h.08v.08h.08v.08h.09V244h.08v.09h.08v.08h.08v.08h.09v.08h.08v.09h.08v.08h.08v.08h.08v.08H431v.08h.08v.09h.08v.08h.08V245h.08v.08h.09v.08h.08v.09h.08v.08h.08v.08h.09v.08h.08v.09h.08v.08H432v.08h.08v.08h.09v.08h.08V246h.08v.08h.08v.08h.09v.08h.08v.09h.08v.08h.08v.08h.08v.08h.09v.08H433v.09h.08v.08h.08v.08h.08V247h.09v.09h.08v.08h.08v.08h.08v.08h.09v.08h.08v.09h.08v.08h.08v.08H434v.08h.09v.09h.08v.08h.08V248h.08v.08h.09v.08h.08v.09h.08v.08h.08v.08h.08v.08h.09v.08h.08v.09H435v.08H435v.08h.09v.08h.08V249h.08V249h.08v.08h.08v.08h.09v.08h.08v.09h.08v.08h.08v.08h.08v.08h.09v.09H436v.08h.08v.08h.08v.08h.09V250h.08v.09h.08v.08h.08v.08h.08v.08h.09v.08h.08v.09h.08v.08h.08v.08H437v.08h.08v.09h.08v.08h.08V251h.08v.08h.09v.08h.08v.09h.08v.08h.08v.08h.09v.08h.08v.09h.08v.08H438v.08h.08v.08h.09v.08h.08V252h.08v.08h.08v.08h.09v.08h.08v.09h.08v.08h.08v.08h.08v.08h.09v.08H439v.09h.08v.08h.08v.08h32v-6.63c0-10.85-1.67-20.31-5-28.1A44.62,44.62,0,0,0,460,207.69c-.5-.61-1-1.21-1.53-1.79-.38-.42-.79-.84-1.24-1.3l-16.32-16.31c-.46-.46-.89-.88-1.33-1.28-.61-.57-1.25-1.12-1.9-1.65s-1.07-.85-1.62-1.24c-8.12-5.92-18.75-8.92-31.62-8.92-15.36,0-27.46,4.23-36,12.57a40.32,40.32,0,0,0-3.15,3.49,44.35,44.35,0,0,0-6.18,10.47c-3.3,7.79-5,17.25-5,28.11,0,27.25,13,44,25.72,56.81l2.3,2.3-.08.24.16-.16,2.8,2.8-.09.24.17-.17,2.8,2.8-.09.24.16-.16,2,2-.09.24.17-.16,2.8,2.79-.09.25.16-.17,2.8,2.8-.08.24.16-.16.41.41c3.9,3.93,8,7.66,11.93,11.27l.76.7c8.37,10,12.27,19.7,12.27,30.53,0,14.43-5.89,21.44-18,21.44l-1,0h-.21l-.09-.2a43.61,43.61,0,0,1-.25-4.77V346.58h-.09v-.08h-.08v-.08h-.08v-.08h-.08v-.08h-.08v-.09h-.09v-.08H401V346h-.08v-.08h-.08v-.09h-.08v-.08h-.09v-.08h-.08v-.08h-.08v-.08h-.08v-.09h-.09v-.08h-.08v-.08h-.08v-.08h-.08v-.09H400V345h-.09v-.08h-.08v-.08h-.08v-.08h-.08v-.09h-.09v-.08h-.08v-.08h-.08v-.08h-.08v-.09h-.08v-.08h-.09v-.08h-.08v-.08H399V344H399V344h-.08v-.08h-.09v-.08h-.08v-.08h-.08v-.08h-.08v-.09h-.09v-.08h-.08v-.08h-.08v-.08h-.08v-.09h-.08v-.08H398v-.08H398V343h-.08v-.08h-.08v-.09h-.09v-.08h-.08v-.08h-.08v-.08h-.08v-.08h-.08v-.09h-.09v-.08h-.08v-.08h-.08v-.08h-.08v-.09H397V342h-.08v-.08h-.08v-.08h-.08v-.09h-.08v-.08h-.09v-.08h-.08v-.08h-.08v-.08h-.08v-.09h-.08v-.08h-.09v-.08h-.08v-.08H396V341h-.08v-.09h-.09v-.08h-.08v-.08h-.08v-.08h-.08v-.09h-.08v-.08h-.09v-.08h-.08v-.08h-.08v-.08h-.08v-.09h-.09v-.08H395V340h-.08v-.08h-.08v-.08h-.08v-.09h-.09v-.08h-.08v-.08h-.08v-.08h-.08v-.09h-.08v-.08h-.09v-.08h-.08v-.08h-.08v-.09H394V339h-.09v-.08h-.08v-.08h-.08v-.08h-.08v-.09h-.08v-.08h-.09v-.08h-.08v-.08h-.08v-.08h-.08v-.09h-.09v-.08h-.08v-.08H393V338H393V338h-.08v-.08h-.09v-.08h-.08v-.08h-.08v-.08h-.08v-.09h-.09v-.08h-.08v-.08h-.08v-.08h-.08v-.08h-.08v-.09H392v-.08H392V337h-.08v-.08h-.08v-.09h-.08v-.08h-.09v-.08h-.08v-.08h-.08v-.08h-.08v-.09h-.09v-.08h-.08v-.08h-.08v-.08h-.08v-.09H391V336h-.09v-.08h-.08v-.08h-.08v-.08h-.08v-.09h-.09v-.08h-.08v-.08h-.08v-.08h-.08v-.09h-.08v-.08h-.09v-.08h-.08v-.08H390V335h-.08v-.09h-.09v-.08h-.08v-.08h-.08v-.08h-.08v-.09h-.08v-.08h-.09v-.08h-.08v-.08h-.08v-.08h-.08v-.09h-.09v-.08H389V334h-.08v-.08h-.08v-.08h-.08v-.09h-.09v-.08h-.08v-.08h-.08v-.08h-.08v-.09h-.08v-.08h-.09v-.08h-.08v-.08h-.08v-.08H388V333h-.09v-.08h-.08v-.08h-.08v-.08h-.08v-.09h-.08v-.08h-.09v-.08h-.08v-.08h-.08v-.08h-.08v-.09h-.09v-.08h-.08v-.08H387V332H387V332h-.08v-.08h-.09v-.08h-.08v-.08h-.08v-.08h-.08v-.09h-.09v-.08h-.08v-.08h-.08v-.08h-.08v-.08h-.08v-.09H386v-.08H386V331h-.08v-.08h-.08v-.09h-.08v-.08h-.09v-.08h-.08v-.08h-.08v-.08h-.08v-.09h-.09v-.08h-.08v-.08h-.08v-.08h-32v13.17c0,18.6,4.89,32.76,14.54,42.08l3.21,3.21-.08.25.16-.17.14.13-.1.24.17-.17.08.09-.12.21.2-.13,1.82,1.82-.1.23.17-.16,2,2-.1.23.16-.16,1.36,1.36-.08.25.16-.17.14.14-.1.23.17-.16.09.08-.13.21.2-.13,1.61,1.61-.08.25.16-.17.13.13-.09.23.16-.16,1.74,1.73-.13.21.2-.13.18.18-.1.23Z" transform="translate(-218.69 -174.14)" fill="#b54558"/>
  <g>
    <polygon points="374.77 19.75 374.77 19.67 374.68 19.67 374.68 19.59 374.6 19.59 374.6 19.51 374.52 19.51 374.52 19.43 374.44 19.43 374.44 19.34 374.36 19.34 374.36 19.26 374.27 19.26 374.27 19.18 374.19 19.18 374.19 19.1 374.11 19.1 374.11 19.01 374.03 19.01 374.03 18.93 373.94 18.93 373.94 18.85 373.86 18.85 373.86 18.77 373.78 18.77 373.78 18.68 373.7 18.68 373.7 18.6 373.62 18.6 373.62 18.52 373.53 18.52 373.53 18.44 373.45 18.44 373.45 18.36 373.37 18.36 373.37 18.27 373.29 18.27 373.29 18.19 373.2 18.19 373.2 18.11 373.12 18.11 373.12 18.03 373.04 18.03 373.04 17.95 372.96 17.95 372.96 17.86 372.88 17.86 372.88 17.78 372.79 17.78 372.79 17.7 372.71 17.7 372.71 17.62 372.63 17.62 372.63 17.53 372.55 17.53 372.55 17.45 372.46 17.45 372.46 17.37 372.38 17.37 372.38 17.29 372.3 17.29 372.3 17.21 372.22 17.21 372.22 17.12 372.14 17.12 372.14 17.04 372.06 17.04 372.06 16.96 371.97 16.96 371.97 16.88 371.89 16.88 371.89 16.8 371.81 16.8 371.81 16.71 371.73 16.71 371.73 16.63 371.64 16.63 371.64 16.55 371.56 16.55 371.56 16.47 371.48 16.47 371.48 16.38 371.4 16.38 371.4 16.3 371.31 16.3 371.31 16.22 371.23 16.22 371.23 16.14 371.15 16.14 371.15 16.05 371.07 16.05 371.07 15.97 370.99 15.97 370.99 15.89 370.9 15.89 370.9 15.81 370.82 15.81 370.82 15.73 370.74 15.73 370.74 15.64 370.66 15.64 370.66 15.56 370.57 15.56 370.57 15.48 370.49 15.48 370.49 15.4 370.41 15.4 370.41 15.31 370.33 15.31 370.33 15.23 370.25 15.23 370.25 15.15 370.16 15.15 370.16 15.07 370.08 15.07 370.08 14.99 370 14.99 370 14.9 369.92 14.9 369.92 14.82 369.84 14.82 369.84 14.74 369.75 14.74 369.75 14.66 369.67 14.66 369.67 14.58 369.59 14.58 369.59 14.49 369.51 14.49 369.51 14.41 369.43 14.41 369.43 14.33 369.34 14.33 369.34 14.25 369.26 14.25 369.26 14.16 369.18 14.16 369.18 14.08 369.1 14.08 369.1 14 369.01 14 369.01 13.92 368.93 13.92 368.93 13.84 368.85 13.84 368.85 13.75 368.77 13.75 368.77 13.67 368.69 13.67 368.69 13.59 368.6 13.59 368.6 13.51 368.52 13.51 368.52 13.43 368.44 13.43 368.44 13.34 368.36 13.34 368.36 13.26 368.27 13.26 368.27 13.18 368.19 13.18 368.19 13.1 368.11 13.1 368.11 13.01 368.03 13.01 368.03 12.93 367.94 12.93 367.94 12.85 367.86 12.85 367.86 12.77 367.78 12.77 367.78 12.69 367.7 12.69 367.7 12.6 367.62 12.6 367.62 12.52 367.53 12.52 367.53 12.44 367.45 12.44 367.45 12.36 367.37 12.36 367.37 12.28 367.29 12.28 367.29 12.19 367.21 12.19 367.21 12.11 367.12 12.11 367.12 12.03 367.04 12.03 367.04 11.95 366.96 11.95 366.96 11.86 366.88 11.86 366.88 11.78 366.8 11.78 366.8 11.7 366.71 11.7 366.71 11.62 366.63 11.62 366.63 11.54 366.55 11.54 366.55 11.45 366.47 11.45 366.47 11.37 366.38 11.37 366.38 11.29 366.3 11.29 366.3 11.21 366.22 11.21 366.22 11.12 366.14 11.12 366.14 11.04 366.06 11.04 366.06 10.96 365.97 10.96 365.97 10.88 365.89 10.88 365.89 10.79 365.81 10.79 365.81 10.71 365.73 10.71 365.73 10.63 365.64 10.63 365.64 10.55 365.56 10.55 365.56 10.47 365.48 10.47 365.48 10.38 365.4 10.38 365.4 10.3 365.31 10.3 365.31 10.22 365.23 10.22 365.23 10.14 365.15 10.14 365.15 10.06 365.07 10.06 365.07 9.97 364.99 9.97 364.99 9.89 364.9 9.89 364.9 9.81 364.82 9.81 364.82 9.73 364.74 9.73 364.74 9.64 364.66 9.64 364.66 9.56 364.58 9.56 364.58 9.48 364.49 9.48 364.49 9.4 364.41 9.4 364.41 9.32 364.33 9.32 364.33 9.23 364.25 9.23 364.25 9.15 364.17 9.15 364.17 9.07 364.08 9.07 364.08 8.99 364 8.99 364 8.9 363.92 8.9 363.92 8.82 363.84 8.82 363.84 8.74 363.75 8.74 363.75 8.66 363.67 8.66 363.67 8.58 363.59 8.58 363.59 8.49 363.51 8.49 363.51 8.41 363.43 8.41 363.43 8.33 363.34 8.33 363.34 8.25 363.26 8.25 363.26 8.16 363.18 8.16 363.18 8.08 363.1 8.08 363.1 8 363.01 8 363.01 7.92 362.93 7.92 362.93 7.84 362.85 7.84 362.85 7.75 362.77 7.75 362.77 7.67 362.69 7.67 362.69 7.59 362.6 7.59 362.6 7.51 362.52 7.51 362.52 7.43 362.44 7.43 362.44 7.34 362.36 7.34 362.36 7.26 362.27 7.26 362.27 7.18 362.19 7.18 362.19 7.1 362.11 7.1 362.11 7.01 362.03 7.01 362.03 6.93 361.95 6.93 361.95 6.85 361.86 6.85 361.86 6.77 361.78 6.77 361.78 6.69 361.7 6.69 361.7 6.6 361.62 6.6 361.62 6.52 361.54 6.52 361.54 6.44 361.45 6.44 361.45 6.36 361.37 6.36 361.37 6.28 361.29 6.28 361.29 6.19 361.21 6.19 361.21 6.11 361.12 6.11 361.12 6.03 361.04 6.03 361.04 5.95 360.96 5.95 360.96 5.86 360.88 5.86 360.88 5.78 360.8 5.78 360.8 5.7 360.71 5.7 360.71 5.62 360.63 5.62 360.63 5.54 360.55 5.54 360.55 5.45 360.47 5.45 360.47 5.37 360.38 5.37 360.38 5.29 360.3 5.29 360.3 5.21 360.22 5.21 360.22 5.12 360.14 5.12 360.14 5.04 360.06 5.04 360.06 4.96 359.97 4.96 359.97 4.88 359.89 4.88 359.89 4.8 359.81 4.8 359.81 4.71 359.73 4.71 359.73 4.63 359.64 4.63 359.64 4.55 359.56 4.55 359.56 4.47 359.48 4.47 359.48 4.38 359.4 4.38 359.4 4.3 359.32 4.3 359.32 4.22 359.23 4.22 359.23 4.14 359.15 4.14 359.15 4.06 359.07 4.06 359.07 3.97 358.99 3.97 358.99 3.89 358.9 3.89 358.9 3.81 358.82 3.81 358.82 3.73 358.74 3.73 358.74 3.65 358.66 3.65 358.66 3.56 358.58 3.56 358.58 3.48 358.49 3.48 358.49 3.4 358.41 3.4 358.41 3.32 252.41 3.32 252.41 34.49 252.49 34.49 252.49 34.58 252.57 34.58 252.57 34.66 252.66 34.66 252.66 34.74 252.74 34.74 252.74 34.82 252.82 34.82 252.82 34.9 252.9 34.9 252.9 34.99 252.99 34.99 252.99 35.07 253.07 35.07 253.07 35.15 253.15 35.15 253.15 35.23 253.23 35.23 253.23 35.31 253.31 35.31 253.31 35.4 253.4 35.4 253.4 35.48 253.48 35.48 253.48 35.56 253.56 35.56 253.56 35.64 253.64 35.64 253.64 35.73 253.73 35.73 253.73 35.81 253.81 35.81 253.81 35.89 253.89 35.89 253.89 35.97 253.97 35.97 253.97 36.05 254.05 36.05 254.05 36.14 254.14 36.14 254.14 36.22 254.22 36.22 254.22 36.3 254.3 36.3 254.3 36.38 254.38 36.38 254.38 36.47 254.47 36.47 254.47 36.55 254.55 36.55 254.55 36.63 254.63 36.63 254.63 36.71 254.71 36.71 254.71 36.79 254.79 36.79 254.79 36.88 254.88 36.88 254.88 36.96 254.96 36.96 254.96 37.04 255.04 37.04 255.04 37.12 255.12 37.12 255.12 37.2 255.21 37.2 255.21 37.29 255.29 37.29 255.29 37.37 255.37 37.37 255.37 37.45 255.45 37.45 255.45 37.53 255.53 37.53 255.53 37.62 255.62 37.62 255.62 37.7 255.7 37.7 255.7 37.78 255.78 37.78 255.78 37.86 255.86 37.86 255.86 37.95 255.94 37.95 255.94 38.03 256.03 38.03 256.03 38.11 256.11 38.11 256.11 38.19 256.19 38.19 256.19 38.27 256.27 38.27 256.27 38.36 256.36 38.36 256.36 38.44 256.44 38.44 256.44 38.52 256.52 38.52 256.52 38.6 256.6 38.6 256.6 38.68 256.68 38.68 256.68 38.77 256.77 38.77 256.77 38.85 256.85 38.85 256.85 38.93 256.93 38.93 256.93 39.01 257.01 39.01 257.01 39.09 257.1 39.09 257.1 39.18 257.18 39.18 257.18 39.26 257.26 39.26 257.26 39.34 257.34 39.34 257.34 39.42 257.42 39.42 257.42 39.51 257.51 39.51 257.51 39.59 257.59 39.59 257.59 39.67 257.67 39.67 257.67 39.75 257.75 39.75 257.75 39.84 257.83 39.84 257.83 39.92 257.92 39.92 257.92 40 258 40 258 40.08 258.08 40.08 258.08 40.16 258.16 40.16 258.16 40.25 258.25 40.25 258.25 40.33 258.33 40.33 258.33 40.41 258.41 40.41 258.41 40.49 258.49 40.49 258.49 40.58 258.57 40.58 258.57 40.66 258.66 40.66 258.66 40.74 258.74 40.74 258.74 40.82 258.82 40.82 258.82 40.9 258.9 40.9 258.9 40.99 258.99 40.99 258.99 41.07 259.07 41.07 259.07 41.15 259.15 41.15 259.15 41.23 259.23 41.23 259.23 41.31 259.31 41.31 259.31 41.4 259.4 41.4 259.4 41.48 259.48 41.48 259.48 41.56 259.56 41.56 259.56 41.64 259.64 41.64 259.64 41.73 259.73 41.73 259.73 41.81 259.81 41.81 259.81 41.89 259.89 41.89 259.89 41.97 259.97 41.97 259.97 42.05 260.05 42.05 260.05 42.14 260.14 42.14 260.14 42.22 260.22 42.22 260.22 42.3 260.3 42.3 260.3 42.38 260.38 42.38 260.38 42.47 260.46 42.47 260.46 42.55 260.55 42.55 260.55 42.63 260.63 42.63 260.63 42.71 260.71 42.71 260.71 42.79 260.79 42.79 260.79 42.88 260.88 42.88 260.88 42.96 260.96 42.96 260.96 43.04 261.04 43.04 261.04 43.12 261.12 43.12 261.12 43.2 261.2 43.2 261.2 43.29 261.29 43.29 261.29 43.37 261.37 43.37 261.37 43.45 261.45 43.45 261.45 43.53 261.53 43.53 261.53 43.62 261.62 43.62 261.62 43.7 261.7 43.7 261.7 43.78 261.78 43.78 261.78 43.86 261.86 43.86 261.86 43.94 261.94 43.94 261.94 44.03 262.03 44.03 262.03 44.11 262.11 44.11 262.11 44.19 262.19 44.19 262.19 44.27 262.27 44.27 262.27 44.35 262.36 44.35 262.36 44.44 262.44 44.44 262.44 44.52 262.52 44.52 262.52 44.6 262.6 44.6 262.6 44.68 262.68 44.68 262.68 44.77 262.77 44.77 262.77 44.85 262.85 44.85 262.85 44.93 262.93 44.93 262.93 45.01 263.01 45.01 263.01 45.09 263.1 45.09 263.1 45.18 263.18 45.18 263.18 45.26 263.26 45.26 263.26 45.34 263.34 45.34 263.34 45.42 263.42 45.42 263.42 45.51 263.51 45.51 263.51 45.59 263.59 45.59 263.59 45.67 263.67 45.67 263.67 45.75 263.75 45.75 263.75 45.83 263.83 45.83 263.83 45.92 263.92 45.92 263.92 46 264 46 264 46.08 264.08 46.08 264.08 46.16 264.16 46.16 264.16 46.24 264.25 46.24 264.25 46.33 264.33 46.33 264.33 46.41 264.41 46.41 264.41 46.49 264.49 46.49 264.49 46.57 264.57 46.57 264.57 46.66 264.66 46.66 264.66 46.74 264.74 46.74 264.74 46.82 264.82 46.82 264.82 46.9 264.9 46.9 264.9 46.98 264.99 46.98 264.99 47.07 265.07 47.07 265.07 47.15 265.15 47.15 265.15 47.23 265.23 47.23 265.23 47.31 265.31 47.31 265.31 47.4 265.4 47.4 265.4 47.48 265.48 47.48 265.48 47.56 265.56 47.56 265.56 47.64 265.64 47.64 265.64 47.73 265.73 47.73 265.73 47.81 265.81 47.81 265.81 47.89 265.89 47.89 265.89 47.97 265.97 47.97 265.97 48.05 266.05 48.05 266.05 48.14 266.14 48.14 266.14 48.22 266.22 48.22 266.22 48.3 266.3 48.3 266.3 48.38 266.38 48.38 266.38 48.46 266.46 48.46 266.46 48.55 266.55 48.55 266.55 48.63 266.63 48.63 266.63 48.71 266.71 48.71 266.71 48.79 266.79 48.79 266.79 48.88 266.88 48.88 266.88 48.96 266.96 48.96 266.96 49.04 267.04 49.04 267.04 49.12 267.12 49.12 267.12 49.2 267.2 49.2 267.2 49.29 267.29 49.29 267.29 49.37 267.37 49.37 267.37 49.45 267.45 49.45 267.45 49.53 267.53 49.53 267.53 49.62 267.62 49.62 267.62 49.7 267.7 49.7 267.7 49.78 267.78 49.78 267.78 49.86 267.86 49.86 267.86 49.94 267.94 49.94 267.94 50.03 268.03 50.03 268.03 50.11 268.11 50.11 268.11 50.19 268.19 50.19 268.19 50.27 268.27 50.27 268.27 50.35 268.36 50.35 268.36 50.44 268.44 50.44 268.44 50.52 268.52 50.52 268.52 50.6 268.6 50.6 268.6 50.68 268.68 50.68 268.68 50.77 268.77 50.77 268.77 50.85 268.85 50.85 268.85 50.93 288.26 50.93 288.26 221.55 288.35 221.55 288.35 221.64 288.43 221.64 288.43 221.72 288.51 221.72 288.51 221.8 288.59 221.8 288.59 221.88 288.68 221.88 288.68 221.97 288.76 221.97 288.76 222.05 288.84 222.05 288.84 222.13 288.92 222.13 288.92 222.21 289 222.21 289 222.29 289.09 222.29 289.09 222.38 289.17 222.38 289.17 222.46 289.25 222.46 289.25 222.54 289.33 222.54 289.33 222.62 289.42 222.62 289.42 222.71 289.5 222.71 289.5 222.79 289.58 222.79 289.58 222.87 289.66 222.87 289.66 222.95 289.74 222.95 289.74 223.03 289.82 223.03 289.82 223.12 289.91 223.12 289.91 223.2 289.99 223.2 289.99 223.28 290.07 223.28 290.07 223.36 290.15 223.36 290.15 223.44 290.24 223.44 290.24 223.53 290.32 223.53 290.32 223.61 290.4 223.61 290.4 223.69 290.48 223.69 290.48 223.77 290.56 223.77 290.56 223.85 290.65 223.85 290.65 223.94 290.73 223.94 290.73 224.02 290.81 224.02 290.81 224.1 290.89 224.1 290.89 224.18 290.98 224.18 290.98 224.27 291.06 224.27 291.06 224.35 291.14 224.35 291.14 224.43 291.22 224.43 291.22 224.51 291.31 224.51 291.31 224.59 291.39 224.59 291.39 224.68 291.47 224.68 291.47 224.76 291.55 224.76 291.55 224.84 291.63 224.84 291.63 224.92 291.72 224.92 291.72 225.01 291.8 225.01 291.8 225.09 291.88 225.09 291.88 225.17 291.96 225.17 291.96 225.25 292.04 225.25 292.04 225.34 292.13 225.34 292.13 225.42 292.21 225.42 292.21 225.5 292.29 225.5 292.29 225.58 292.37 225.58 292.37 225.66 292.45 225.66 292.45 225.75 292.54 225.75 292.54 225.83 292.62 225.83 292.62 225.91 292.7 225.91 292.7 225.99 292.78 225.99 292.78 226.07 292.87 226.07 292.87 226.16 292.95 226.16 292.95 226.24 293.03 226.24 293.03 226.32 293.11 226.32 293.11 226.4 293.19 226.4 293.19 226.49 293.28 226.49 293.28 226.57 293.36 226.57 293.36 226.65 293.44 226.65 293.44 226.73 293.52 226.73 293.52 226.81 293.61 226.81 293.61 226.9 293.69 226.9 293.69 226.98 293.77 226.98 293.77 227.06 293.85 227.06 293.85 227.14 293.94 227.14 293.94 227.22 294.02 227.22 294.02 227.31 294.1 227.31 294.1 227.39 294.18 227.39 294.18 227.47 294.26 227.47 294.26 227.55 294.35 227.55 294.35 227.64 294.43 227.64 294.43 227.72 294.51 227.72 294.51 227.8 294.59 227.8 294.59 227.88 294.67 227.88 294.67 227.96 294.76 227.96 294.76 228.05 294.84 228.05 294.84 228.13 294.92 228.13 294.92 228.21 295 228.21 295 228.29 295.08 228.29 295.08 228.38 295.17 228.38 295.17 228.46 295.25 228.46 295.25 228.54 295.33 228.54 295.33 228.62 295.41 228.62 295.41 228.7 295.5 228.7 295.5 228.79 295.58 228.79 295.58 228.87 295.66 228.87 295.66 228.95 295.74 228.95 295.74 229.03 295.82 229.03 295.82 229.12 295.91 229.12 295.91 229.2 295.99 229.2 295.99 229.28 296.07 229.28 296.07 229.36 296.15 229.36 296.15 229.44 296.24 229.44 296.24 229.53 296.32 229.53 296.32 229.61 296.4 229.61 296.4 229.69 296.48 229.69 296.48 229.77 296.56 229.77 296.56 229.85 296.65 229.85 296.65 229.94 296.73 229.94 296.73 230.02 296.81 230.02 296.81 230.1 296.89 230.1 296.89 230.18 296.98 230.18 296.98 230.27 297.06 230.27 297.06 230.35 297.14 230.35 297.14 230.43 297.22 230.43 297.22 230.51 297.3 230.51 297.3 230.59 297.39 230.59 297.39 230.68 297.47 230.68 297.47 230.76 297.55 230.76 297.55 230.84 297.63 230.84 297.63 230.92 297.71 230.92 297.71 231 297.8 231 297.8 231.09 297.88 231.09 297.88 231.17 297.96 231.17 297.96 231.25 298.04 231.25 298.04 231.33 298.13 231.33 298.13 231.42 298.21 231.42 298.21 231.5 298.29 231.5 298.29 231.58 298.37 231.58 298.37 231.66 298.45 231.66 298.45 231.75 298.54 231.75 298.54 231.83 298.62 231.83 298.62 231.91 298.7 231.91 298.7 231.99 298.78 231.99 298.78 232.07 298.87 232.07 298.87 232.16 298.95 232.16 298.95 232.24 299.03 232.24 299.03 232.32 299.11 232.32 299.11 232.4 299.19 232.4 299.19 232.49 299.28 232.49 299.28 232.57 299.36 232.57 299.36 232.65 299.44 232.65 299.44 232.73 299.52 232.73 299.52 232.81 299.61 232.81 299.61 232.9 299.69 232.9 299.69 232.98 299.77 232.98 299.77 233.06 299.85 233.06 299.85 233.14 299.93 233.14 299.93 233.22 300.02 233.22 300.02 233.31 300.1 233.31 300.1 233.39 300.18 233.39 300.18 233.47 300.26 233.47 300.26 233.55 300.35 233.55 300.35 233.63 300.43 233.63 300.43 233.72 300.51 233.72 300.51 233.8 300.59 233.8 300.59 233.88 300.67 233.88 300.67 233.96 300.76 233.96 300.76 234.05 300.84 234.05 300.84 234.13 300.92 234.13 300.92 234.21 301 234.21 301 234.29 301.08 234.29 301.08 234.38 301.17 234.38 301.17 234.46 301.25 234.46 301.25 234.54 301.33 234.54 301.33 234.62 301.41 234.62 301.41 234.7 301.5 234.7 301.5 234.79 301.58 234.79 301.58 234.87 301.66 234.87 301.66 234.95 301.74 234.95 301.74 235.03 301.82 235.03 301.82 235.12 301.91 235.12 301.91 235.2 301.99 235.2 301.99 235.28 302.07 235.28 302.07 235.36 302.15 235.36 302.15 235.44 302.24 235.44 302.24 235.53 302.32 235.53 302.32 235.61 302.4 235.61 302.4 235.69 302.48 235.69 302.48 235.77 302.56 235.77 302.56 235.85 302.65 235.85 302.65 235.94 302.73 235.94 302.73 236.02 302.81 236.02 302.81 236.1 302.89 236.1 302.89 236.18 302.98 236.18 302.98 236.26 303.06 236.26 303.06 236.35 303.14 236.35 303.14 236.43 303.22 236.43 303.22 236.51 303.3 236.51 303.3 236.59 303.39 236.59 303.39 236.68 303.47 236.68 303.47 236.76 303.55 236.76 303.55 236.84 303.63 236.84 303.63 236.92 303.71 236.92 303.71 237 303.8 237 303.8 237.09 303.88 237.09 303.88 237.17 303.96 237.17 303.96 237.25 304.04 237.25 304.04 237.33 304.13 237.33 304.13 237.42 304.21 237.42 304.21 237.5 304.29 237.5 304.29 237.58 304.37 237.58 304.37 237.66 304.45 237.66 304.45 237.74 304.54 237.74 304.54 237.83 304.62 237.83 304.62 237.91 304.7 237.91 304.7 237.99 339 237.99 339 237.99 339 50.93 374.85 50.93 374.85 19.75 374.77 19.75" fill="#b54558"/>
    <path d="M557.92,412.37H523.16v-.09h-.08v-.08H523v-.08h-.08V412h-.09V412h-.08v-.09h-.08v-.08h-.08v-.08h-.08v-.08h-.09v-.08h-.08v-.09h-.08v-.08h-.08v-.08h-.09v-.08H522v-.09h-.08v-.08h-.08V411h-.09v-.08h-.08v-.08h-.08v-.09h-.08v-.08h-.08v-.08h-.09v-.08h-.08v-.08h-.08v-.09h-.08v-.08H521v-.08h-.09v-.08h-.08V410h-.08v-.08h-.08v-.08h-.09v-.08h-.08v-.09h-.08v-.08h-.08v-.08h-.08v-.08h-.09v-.08h-.08v-.09H520v-.08H520v-.08h-.09V409h-.08v-.08h-.08v-.09h-.08v-.08h-.08v-.08h-.09v-.08h-.08v-.09h-.08v-.08h-.08v-.08h-.08v-.08h-.09v-.08H519v-.09h-.08V408h-.08v-.08h-.09v-.08h-.08v-.09h-.08v-.08h-.08v-.08h-.08v-.08h-.09v-.08h-.08v-.09h-.08v-.08h-.08v-.08H518v-.08h-.08V407h-.08v-.09h-.08v-.08h-.08v-.08h-.09v-.08h-.08v-.09h-.08v-.08h-.08v-.08h-.09v-.08h-.08v-.08h-.08v-.09H517v-.08h-.08V406h-.09V406h-.08v-.09h-.08v-.08h-.08v-.08h-.08v-.08h-.09v-.08h-.08v-.09h-.08v-.08h-.08v-.08h-.09v-.08H516v-.09h-.08v-.08h-.08V405h-.08v-.08h-.09v-.08h-.08v-.09h-.08v-.08h-.08v-.08h-.09v-.08h-.08v-.08h-.08v-.09h-.08v-.08H515v-.08h-.09v-.08h-.08V404h-.08v-.08h-.08v-.08h-.09v-.08h-.08v-.08h-.08v-.09h-.08v-.08h-.08v-.08h-.09v-.08h-.08v-.09H514v-.08H514v-.08h-.08V403h-.09v-.08h-.08v-.09h-.08v-.08h-.08v-.08h-.09v-.08h-.08v-.09h-.08v-.08h-.08v-.08h-.08v-.08h-.09v-.08H513v-.09h-.08V402h-.08v-.08h-.09v-.08h-.08v-.08h-.08v-.09h-.08v-.08h-.08v-.08h-.09v-.08h-.08v-.09h-.08v-.08h-.08v-.08H512v-.08h-.08V401h-.08v-.09h-.08v-.08h-.08v-.08h-.09v-.08h-.08v-.09h-.08v-.08h-.08v-.08h-.08v-.08h-.09v-.08h-.08v-.09H511v-.08h-.08V400h-.09V400h-.08v-.09h-.08v-.08h-.08v-.08h-.08v-.08h-.09v-.08h-.08v-.09h-.08v-.08h-.08v-.08h-.08v-.08H510v-.08h-.08v-.09h-.08V399h-.08v-.08h-.09v-.08h-.08v-.09h-.08v-.08h-.08v-.08h-.09v-.08h-.08v-.08h-.08v-.09h-.08v-.08H509v-.08h-.09v-.08h-.08V398h-.08v-.08h-.08v-.08h-.08v-.08h-.09v-.08h-.08v-.09h-.08v-.08h-.08v-.08h-.09v-.08h-.08v-.09H508v-.08H508v-.08h-.08V397h-.09v-.08h-.08v-.09h-.08v-.08h-.08v-.08h-.08v-.08h-.09v-.08h-.08v-.09h-.08v-.08h-.08v-.08h-.09v-.08H507v-.09h-.08V396h-.08v-.08h-.09V225.31H487.31v-.09h-.08v-.08h-.09v-.08h-.08V225H487v-.08h-.08v-.09h-.08v-.08h-.09v-.08h-.08v-.08h-.08v-.09h-.08v-.08h-.09v-.08h-.08v-.08h-.08v-.08h-.08v-.09h-.08V224H486v-.08h-.08v-.08h-.08v-.09h-.08v-.08h-.08v-.08h-.09v-.08h-.08v-.08h-.08v-.09h-.08v-.08h-.09v-.08h-.08v-.08h-.08V223H485v-.09h-.08v-.08h-.09v-.08h-.08v-.08h-.08v-.09h-.08v-.08h-.09v-.08h-.08v-.08h-.08v-.08h-.08v-.09h-.08v-.08h-.09V222H484v-.08h-.08v-.09h-.08v-.08h-.09v-.08h-.08v-.08h-.08v-.08h-.08v-.09h-.08v-.08h-.09v-.08h-.08v-.08h-.08v-.09h-.08V221H483V221H483v-.08h-.08v-.08h-.08v-.09h-.08v-.08h-.09v-.08h-.08v-.08h-.08v-.08h-.08v-.09h-.08v-.08h-.09v-.08h-.08v-.08h-.08V220H482v-.08h-.08v-.08h-.09v-.08h-.08v-.08h-.08v-.09h-.08v-.08h-.09v-.08h-.08v-.08h-.08v-.09h-.08v-.08h-.09v-.08h-.08V219H481v-.08h-.08v-.09h-.08v-.08h-.09v-.08h-.08v-.08h-.08v-.09h-.08v-.08h-.08v-.08h-.09v-.08h-.08v-.08h-.08v-.09h-.08V218H480v-.08h-.08v-.08h-.08v-.08h-.08v-.09h-.08v-.08h-.09v-.08h-.08v-.08h-.08v-.09h-.08v-.08h-.08v-.08h-.09v-.08h-.08V217H479v-.09h-.08v-.08h-.09v-.08h-.08v-.08h-.08v-.09h-.08v-.08h-.09v-.08h-.08v-.08h-.08v-.08h-.08v-.09h-.08v-.08h-.09V216H478v-.08h-.08v-.09h-.08v-.08h-.08v-.08h-.09v-.08h-.08v-.08h-.08v-.09h-.08v-.08h-.09v-.08h-.08v-.08h-.08v-.09h-.08V215H477V215H477v-.08h-.08v-.08h-.08v-.09h-.08v-.08h-.08v-.08h-.09v-.08h-.08v-.08h-.08v-.09h-.08v-.08h-.09v-.08h-.08v-.08h-.08V214H476v-.08h-.08v-.08h-.09v-.08h-.08v-.08h-.08v-.09h-.08v-.08h-.09v-.08h-.08v-.08h-.08v-.09h-.08v-.08h-.08v-.08h-.09V213H475v-.08h-.08v-.09h-.08v-.08h-.09v-.08h-.08v-.08h-.08v-.09h-.08v-.08h-.08v-.08h-.09v-.08h-.08v-.08h-.08v-.09h-.08V212H474v-.08h-.09v-.08h-.08v-.08h-.08v-.09h-.08v-.08h-.09v-.08h-.08v-.08h-.08v-.09h-.08v-.08h-.08v-.08h-.09v-.08h-.08V211H473v-.09h-.08v-.08h-.09v-.08h-.08v-.08h-.08v-.09h-.08v-.08h-.08v-.08h-.09v-.08h-.08v-.08h-.08v-.09h-.08v-.08h-.09V210H472v-.08h-.08v-.08h-.08v-.09h-.08v-.08h-.09v-.08h-.08v-.08h-.08v-.09h-.08v-.08h-.09v-.08h-.08v-.08h-.08v-.08h-.08V209H471V209H471v-.08h-.08V177.23H577.34v.08h.08v.08h.08v.08h.08v.09h.09v.08h.08v.08h.08v.08h.08v.08H578V178h.08v.08h.08v.08h.08v.08h.08v.09h.09v.08h.08v.08h.08v.08h.08v.08h.08v.09h.09v.08h.08v.08H579V179h.08V179h.09v.08h.08v.08h.08v.08h.08v.08h.08v.09h.09v.08h.08v.08h.08v.08h.08v.09h.09v.08H580v.08h.08V180h.08v.08h.08v.09h.09v.08h.08v.08h.08v.08h.08v.09h.09v.08h.08v.08h.08v.08h.08v.08H581v.09H581V181h.08v.08h.08v.08h.08v.08h.08v.09h.09v.08h.08v.08h.08v.08h.08v.09h.09v.08h.08v.08h.08v.08H582V182h.08v.09h.09v.08h.08v.08h.08v.08h.08v.09h.09v.08h.08v.08h.08v.08h.08v.08h.08v.09h.09v.08H583V183h.08v.08h.08v.09h.09v.08h.08v.08h.08v.08h.08v.08h.08v.09h.09v.08h.08v.08h.08v.08h.08v.08H584V184h.09v.08h.08v.08h.08v.08h.08v.09h.09v.08h.08v.08h.08v.08h.08v.08h.08v.09h.09v.08h.08v.08H585V185h.08V185h.09v.08h.08v.08h.08v.08h.08v.08h.08v.09h.09v.08h.08v.08h.08v.08h.08v.09h.09v.08H586v.08h.08V186h.08v.08h.08v.09h.09v.08h.08v.08h.08v.08h.08v.08h.09v.09h.08v.08h.08v.08h.08v.08H587v.09H587V187h.08v.08h.08v.08h.08v.08h.08v.09h.09v.08h.08v.08h.08v.08h.08v.09h.09v.08h.08v.08h.08v.08H588V188h.08v.09h.09v.08h.08v.08h.08v.08h.08v.08h.08v.09h.09v.08h.08v.08h.08v.08h.08v.09h.09v.08H589V189h.08v.08h.08v.08h.09v.09h.08v.08h.08v.08h.08v.08h.08v.09h.09v.08h.08v.08h.08v.08h.08v.08H590V190h.09v.08h.08v.08h.08v.08h.08v.09h.09v.08h.08v.08h.08v.08h.08v.08h.08v.09h.09v.08h.08v.08H591V191h.08V191h.08v.09h.09v.08h.08v.08h.08v.08h.08v.09h.09v.08h.08v.08h.08v.08h.08v.08h.09v.09H592v.08h.08V192h.08v.08h.08v.09h.09v.08h.08v.08h.08v.08h.08v.08h.08v.09h.09v.08h.08v.08h.08v.08H593v.08H593V193h.08v.08h.08v.08h.08v.08h.08v.09h.09v.08h.08v.08h.08v.08h.08v.08h.08v31.65H557.92Zm-34.29-.47h33.83V224.84h35.85V194.13h-.08v-.08h-.08V194h-.09v-.08H593v-.08h-.08v-.08h-.08v-.08h-.09v-.09h-.08v-.08h-.08v-.08h-.08v-.08h-.08v-.08h-.09v-.09h-.08v-.08h-.08V193h-.08v-.08H592v-.09h-.09v-.08h-.08v-.08h-.08v-.08h-.08v-.08h-.09v-.09h-.08v-.08h-.08v-.08h-.08v-.08h-.08v-.09h-.09V192h-.08v-.08H591v-.08h-.08v-.08h-.09v-.09h-.08v-.08h-.08v-.08h-.08v-.08h-.08v-.08h-.09v-.09h-.08v-.08h-.08v-.08h-.08V191h-.09v-.09H590v-.08h-.08v-.08h-.08v-.08h-.08v-.08h-.09v-.09h-.08v-.08h-.08v-.08h-.08v-.08h-.08v-.09h-.09v-.08h-.08V190h-.08v-.08H589v-.08H589v-.09h-.08v-.08h-.08v-.08h-.08v-.08h-.08v-.09h-.09v-.08h-.08v-.08h-.08v-.08h-.08v-.08h-.09V189h-.08V189h-.08v-.08H588v-.08h-.08v-.08h-.09v-.09h-.08v-.08h-.08v-.08h-.08v-.08h-.09v-.09h-.08v-.08h-.08v-.08h-.08v-.08h-.08V188h-.09v-.09H587v-.08h-.08v-.08h-.08v-.08h-.08v-.09h-.09v-.08h-.08v-.08h-.08v-.08h-.08v-.08h-.09v-.09h-.08v-.08h-.08V187h-.08v-.08H586v-.08h-.09v-.09h-.08v-.08h-.08v-.08h-.08v-.08h-.09v-.09h-.08v-.08h-.08v-.08h-.08v-.08h-.08v-.08h-.09V186h-.08v-.08H585v-.08h-.08v-.08h-.08v-.09h-.09v-.08h-.08v-.08h-.08v-.08h-.08v-.08h-.09v-.09h-.08v-.08h-.08v-.08h-.08V185h-.08v-.09H584v-.08h-.08v-.08h-.08v-.08h-.08v-.08h-.09v-.09h-.08v-.08h-.08v-.08h-.08v-.08h-.08v-.08h-.09v-.09h-.08V184h-.08v-.08H583v-.08H583v-.09h-.08v-.08h-.08v-.08h-.08v-.08h-.08v-.08h-.09v-.09h-.08v-.08h-.08v-.08h-.08v-.08h-.08V183h-.09V183h-.08v-.08H582v-.08h-.08v-.08h-.09v-.09h-.08v-.08h-.08v-.08h-.08v-.08h-.08v-.08h-.09v-.09h-.08v-.08h-.08v-.08h-.08V182h-.09v-.09H581v-.08h-.08v-.08h-.08v-.08h-.08v-.08h-.09v-.09h-.08v-.08h-.08v-.08h-.08v-.08h-.09v-.09h-.08v-.08h-.08V181h-.08v-.08H580v-.08h-.09v-.09h-.08v-.08h-.08v-.08h-.08v-.08h-.08v-.09h-.09v-.08h-.08v-.08h-.08v-.08h-.08v-.08h-.09V180h-.08v-.08H579v-.08h-.08v-.08h-.08v-.09h-.09v-.08h-.08v-.08h-.08v-.08h-.08v-.08h-.09v-.09h-.08v-.08h-.08v-.08h-.08V179h-.08v-.08H578v-.09h-.08v-.08h-.08v-.08h-.08v-.08h-.09v-.09h-.08v-.08h-.08v-.08h-.08v-.08h-.08v-.08h-.09v-.09h-.08V178h-.08v-.08H577v-.08H577v-.09h-.09v-.08H471.34V208.4h.08v.09h.08v.08h.08v.08h.09v.08h.08v.09h.08v.08h.08V209H472v.08h.09v.08h.08v.09h.08v.08h.08v.08h.09v.08h.08v.08h.08v.09h.08v.08h.08v.08h.09v.08h.08V210H473v.08h.08v.08h.08v.08h.09v.08h.08v.09h.08v.08h.08v.08h.09v.08h.08v.09h.08v.08h.08v.08h.08V211H474V211h.08v.09h.08v.08h.08v.08h.09v.08h.08v.08h.08v.09h.08v.08h.08v.08h.09v.08h.08v.09h.08v.08H475V212H475v.08h.08v.08h.08v.09h.08v.08h.08v.08h.09v.08h.08v.09h.08v.08h.08v.08h.08v.08h.09v.08h.08V213H476v.08h.08v.08h.09v.08h.08v.09h.08v.08h.08v.08h.08v.08h.09v.08h.08v.09h.08v.08h.08v.08h.09V214H477v.08h.08v.09h.08v.08h.08v.08h.09v.08h.08v.09h.08v.08h.08v.08h.09v.08h.08v.08h.08v.09h.08V215H478v.08h.09v.08h.08v.09h.08v.08h.08v.08h.08v.08h.09v.08h.08v.09h.08v.08h.08v.08h.09v.08h.08V216H479v.08h.08v.08h.08v.08h.09v.08h.08v.09h.08v.08h.08v.08h.09v.08h.08v.08h.08v.09h.08v.08h.08V217H480V217h.08v.09h.08v.08h.08v.08h.09v.08h.08v.08h.08v.09h.08v.08h.08v.08h.09v.08h.08v.09h.08v.08H481V218H481v.08h.09v.08h.08v.09h.08v.08h.08v.08h.09v.08h.08v.09h.08v.08h.08v.08h.08v.08h.09v.08h.08V219H482v.08h.08v.08h.08v.08h.09v.08h.08v.09h.08v.08h.08v.08h.09v.08h.08v.09h.08v.08h.08v.08h.09V220H483v.08h.08v.09h.08v.08h.08v.08h.09v.08h.08v.09h.08v.08h.08v.08h.08v.08h.09v.08h.08v.09h.08V221H484v.08h.09v.08h.08v.09h.08v.08h.08v.08h.08v.08h.09v.08h.08v.09h.08v.08h.08v.08h.08v.08h.09V222H485v.09h.08v.08h.08v.08h.09v.08h.08v.09h.08v.08h.08v.08h.09v.08h.08v.08h.08v.09h.08v.08h.08V223H486V223h.08v.09h.08v.08h.08v.08h.08v.08h.09v.08h.08v.09h.08v.08h.08v.08h.09v.08h.08v.09h.08v.08H487V224H487v.08h.09v.08h.08v.09h.08v.08h.08v.08h.08v.08h.09v.08h.08v.09h.08v.08h.08v.08h19.42V395.47h.08v.08h.08v.08h.09v.08h.08v.08h.08v.09h.08V396h.08V396h.09v.08h.08v.08H508v.09h.08v.08h.09v.08h.08v.08h.08v.09h.08v.08h.09v.08h.08v.08h.08v.08h.08V397h.08v.08h.09v.08H509v.08h.08v.09h.08v.08h.08v.08h.09v.08h.08v.08h.08v.09h.08v.08h.09v.08h.08V398h.08v.09h.08v.08H510v.08h.09v.08h.08v.08h.08v.09h.08v.08h.08v.08h.09v.08h.08v.08h.08v.09h.08V399h.09v.08h.08v.08H511v.09h.08v.08h.09v.08h.08v.08h.08v.08h.08v.09h.08v.08h.09v.08h.08v.08h.08V400h.08v.09h.08v.08H512v.08H512v.08h.08v.09h.08v.08h.09v.08h.08v.08h.08v.09h.08v.08h.08v.08h.09V401h.08v.08h.08v.09h.08v.08H513v.08h.09v.08h.08v.08h.08v.09h.08v.08h.09v.08h.08v.08h.08v.09h.08V402h.08V402h.09v.08h.08v.08H514v.09h.08v.08h.09v.08h.08v.08h.08v.09h.08v.08h.08v.08h.09v.08h.08v.08h.08V403h.08v.08h.09v.08H515v.08h.08v.09h.08v.08h.08v.08h.09v.08h.08v.08h.08v.09h.08v.08h.08v.08h.09V404h.08v.08h.08v.09H516v.08h.09v.08h.08v.08h.08v.09h.08v.08h.08v.08h.09v.08h.08v.08h.08v.09h.08V405h.09v.08h.08v.08H517v.09h.08v.08h.08v.08h.09v.08h.08v.08h.08v.09h.08v.08h.09v.08h.08v.08h.08V406h.08v.09h.08v.08H518v.08H518v.08h.08v.09h.08v.08h.09v.08h.08v.08h.08v.08h.08v.09h.08v.08h.09V407h.08v.08h.08v.09h.08v.08H519v.08h.09v.08h.08v.08h.08v.09h.08v.08h.09v.08h.08v.08h.08v.09h.08V408h.08V408h.09v.08h.08v.08H520v.09h.08v.08h.09v.08h.08v.08h.08v.08h.08v.09h.08v.08h.09v.08h.08v.08h.08V409h.08v.08h.09v.08H521v.08h.08v.08h.08v.09h.08v.08h.09v.08h.08v.08h.08v.09h.08v.08h.08v.08h.09V410h.08v.08h.08v.09H522v.08h.09v.08h.08v.08h.08v.09h.08v.08h.08v.08h.09v.08h.08v.08h.08v.09h.08V411h.09v.08h.08v.08H523v.08h.08v.09h.08v.08h.09v.08h.08v.08h.08v.09h.08v.08h.09v.08h.08Z" transform="translate(-218.69 -174.14)" fill="#b54558"/>
  </g>
  <g>
    <g>
      <path d="M271.58,393.67c-15.39,0-27.29-4.35-35.37-12.92S224,359.58,224,343.32V229.84c0-16.26,4.09-28.85,12.17-37.43s20-12.92,35.37-12.92,27.3,4.34,35.37,12.92,12.18,21.17,12.18,37.43V343.32c0,16.26-4.1,28.85-12.18,37.43S287,393.67,271.58,393.67Zm0-192c-19.39,0-22.29,16.31-22.29,26V345.5c0,9.72,2.9,26,22.29,26s22.29-16.31,22.29-26V227.65C293.87,217.93,291,201.62,271.58,201.62Z" transform="translate(-218.69 -174.14)" fill="#d68a95"/>
      <path d="M271.58,394.49c-15.63,0-27.73-4.43-36-13.17s-12.4-21.53-12.4-38V229.84c0-16.48,4.18-29.26,12.4-38s20.34-13.18,36-13.18,27.73,4.44,36,13.18,12.4,21.52,12.4,38V343.32c0,16.47-4.17,29.26-12.4,38S287.21,394.49,271.58,394.49Zm0-214.18c-15.16,0-26.86,4.26-34.77,12.66s-11.95,20.83-11.95,36.87V343.32c0,16,4,28.45,11.95,36.87s19.61,12.66,34.77,12.66,26.86-4.26,34.77-12.66,11.95-20.83,11.95-36.87V229.84c0-16-4-28.45-11.95-36.87S286.74,180.31,271.58,180.31Zm0,192.05c-8.63,0-23.11-3.49-23.11-26.86V227.65c0-23.36,14.48-26.85,23.11-26.85s23.11,3.49,23.11,26.85V345.5C294.69,368.87,280.21,372.36,271.58,372.36Zm0-169.92c-18.68,0-21.47,15.8-21.47,25.21V345.5c0,9.42,2.79,25.21,21.47,25.21s21.47-15.79,21.47-25.21V227.65C293.05,218.24,290.26,202.44,271.58,202.44Z" transform="translate(-218.69 -174.14)" fill="#fff"/>
    </g>
    <g>
      <path d="M271.58,184c14.1,0,24.89,3.86,32.08,11.49s10.95,19.27,10.95,34.34V343.32c0,15.07-3.69,26.62-10.95,34.33s-18,11.5-32.08,11.5-24.89-3.87-32.08-11.5-10.94-19.26-10.94-34.33V229.84c0-15.07,3.68-26.62,10.94-34.34s18-11.49,32.08-11.49m0,192.05c8.06,0,26.81-3,26.81-30.56V227.65c0-27.57-18.75-30.55-26.81-30.55s-26.81,3-26.81,30.55V345.5c0,27.58,18.75,30.56,26.81,30.56m0-201.09c-33.67,0-52.06,19.95-52.06,54.87V343.32c0,34.92,18.39,54.87,52.06,54.87s52.07-19.95,52.07-54.87V229.84c0-34.92-18.4-54.87-52.07-54.87Zm0,192c-10.91,0-17.77-5.93-17.77-21.52V227.65c0-15.58,6.86-21.51,17.77-21.51s17.77,5.93,17.77,21.51V345.5c0,15.59-6.86,21.52-17.77,21.52Z" transform="translate(-218.69 -174.14)" fill="#fff"/>
      <path d="M271.58,399c-16.93,0-30.13-4.91-39.26-14.6S218.69,361,218.69,343.32V229.84c0-17.67,4.59-31.49,13.63-41.1s22.33-14.6,39.26-14.6,30.14,4.92,39.26,14.6,13.63,23.43,13.63,41.1V343.32c0,17.66-4.59,31.49-13.63,41.09S288.51,399,271.58,399Zm0-223.22c-33,0-51.24,19.19-51.24,54.05V343.32c0,34.85,18.2,54.05,51.24,54.05s51.24-19.2,51.24-54.05V229.84C322.82,195,304.63,175.79,271.58,175.79Zm0,214.18c-14.34,0-25.33-4-32.67-11.75s-11.18-19.62-11.18-34.9V229.84c0-15.29,3.76-27,11.18-34.9s18.33-11.76,32.67-11.76,25.33,4,32.68,11.76,11.17,19.61,11.17,34.9V343.32c0,15.28-3.76,27-11.17,34.9S285.92,390,271.58,390Zm0-205.14c-13.86,0-24.46,3.78-31.48,11.24S229.38,215,229.38,229.84V343.32c0,14.85,3.61,26.21,10.72,33.77s17.62,11.24,31.48,11.24,24.46-3.78,31.48-11.24,10.72-18.92,10.72-33.77V229.84c0-14.85-3.6-26.22-10.72-33.77S285.45,184.83,271.58,184.83Zm0,192c-8.31,0-27.63-3.06-27.63-31.38V227.65c0-28.31,19.32-31.37,27.63-31.37s27.63,3.06,27.63,31.37V345.5C299.21,373.82,279.89,376.88,271.58,376.88Zm0-179c-23.46,0-26,20.8-26,29.73V345.5c0,8.94,2.53,29.73,26,29.73s26-20.79,26-29.73V227.65C297.57,218.72,295,197.92,271.58,197.92ZM290.17,345.5c0,14.82-6.25,22.34-18.59,22.34S253,360.32,253,345.5V227.65c0-14.81,6.25-22.33,18.59-22.33s18.59,7.52,18.59,22.33m-1.64,0c0-13.92-5.54-20.69-16.95-20.69s-16.95,6.77-16.95,20.69V345.5c0,13.93,5.55,20.69,16.95,20.69s16.95-6.76,16.95-20.69" transform="translate(-218.69 -174.14)" fill="#fff"/>
    </g>
  </g>
  <g>
    <g>
      <path d="M404.18,393.67c-38.52,0-46.61-27.38-46.61-50.35v-8.89H381V345.5c0,21.26,12.12,25.72,22.29,25.72s22.29-4.46,22.29-25.72c0-22.6-15-36.32-30.88-50.84-17.77-16.27-36.15-33.08-36.15-64.82,0-23,8-50.35,46-50.35s46,27.38,46,50.35v2.34H427.1v-4.53c0-11.87-3.76-26-21.67-26s-21.67,14.16-21.67,26c0,22.6,15,36.32,30.88,50.85,17.77,16.26,36.15,33.08,36.15,64.82C450.79,366.29,442.71,393.67,404.18,393.67Z" transform="translate(-218.69 -174.14)" fill="#d68a95"/>
      <path d="M404.18,394.49c-21.64,0-47.43-8.87-47.43-51.17v-9.71h25V345.5c0,11.36,3.72,24.9,21.47,24.9s21.47-13.54,21.47-24.9c0-22.23-14.87-35.84-30.61-50.24-17.91-16.38-36.42-33.32-36.42-65.42,0-42.3,25.45-51.18,46.8-51.18s46.81,8.88,46.81,51.18V233h-25v-5.35c0-11.5-3.62-25.21-20.85-25.21s-20.85,13.71-20.85,25.21c0,22.24,14.87,35.84,30.61,50.24,17.91,16.39,36.43,33.33,36.43,65.43C451.62,385.62,425.82,394.49,404.18,394.49ZM358.4,335.26v8.06c0,22.6,7.94,49.53,45.78,49.53S450,365.92,450,343.32c0-31.38-18.24-48.07-35.89-64.21-16-14.66-31.14-28.49-31.14-51.46,0-22.19,12.23-26.85,22.49-26.85s22.49,4.66,22.49,26.85v3.7h21.74v-1.51c0-22.6-7.84-49.53-45.17-49.53s-45.16,26.93-45.16,49.53c0,31.37,18.25,48.07,35.89,64.21,16,14.65,31.14,28.49,31.14,51.45,0,21.94-12.57,26.55-23.11,26.55s-23.12-4.61-23.12-26.55V335.26Z" transform="translate(-218.69 -174.14)" fill="#fff"/>
    </g>
    <g>
      <path d="M404.49,184c13.79,0,24.24,3.82,31.06,11.36,6.58,7.27,10.06,18.12,10.39,32.29H431.62c0-26.58-16.41-30.55-26.19-30.55s-26.19,4-26.19,30.55c0,24.59,16.44,39.64,32.34,54.19,8.66,7.91,17.6,16.09,24.14,25.94,7.2,10.82,10.55,22.12,10.55,35.54,0,15.19-3.55,26.78-10.56,34.42s-17.55,11.41-31.53,11.41-24.58-3.84-31.52-11.41-10.57-19.23-10.57-34.42V339h14.35v6.54c0,9.93,2.34,17.31,7.17,22.56,4.68,5.1,11.29,7.68,19.64,7.68s14.95-2.58,19.63-7.68,7.18-12.63,7.18-22.56c0-24.59-16.44-39.63-32.34-54.18-8.65-7.91-17.6-16.1-24.14-25.94-7.2-10.82-10.55-22.12-10.55-35.54,0-15.23,3.5-26.83,10.41-34.47S390.7,184,404.49,184m0-9c-33.35,0-50.5,19.95-50.5,54.87,0,62.35,67,70.77,67,115.66,0,15.59-6.86,21.2-17.77,21.2s-17.77-5.61-17.77-21.2V329.91H353.05v13.41c0,34.92,17.46,54.87,51.13,54.87s51.13-19.95,51.13-54.87c0-62.35-67-70.77-67-115.67,0-15.58,6.24-21.51,17.15-21.51s17.15,5.93,17.15,21.51v9H455v-6.86c0-34.92-17.15-54.87-50.51-54.87Z" transform="translate(-218.69 -174.14)" fill="#fff"/>
      <path d="M404.18,399c-33.5,0-51.95-19.78-51.95-55.69V329.09H386.3V345.5c0,13.91,5.38,20.38,16.95,20.38s16.95-6.47,16.95-20.38c0-20.24-14.72-32-29.7-45.75-17.76-16.25-37.33-35.82-37.33-69.91,0-35.92,18.23-55.7,51.32-55.7s51.33,19.78,51.33,55.7v7.68H421.76v-9.87c0-14.11-5.19-20.69-16.33-20.69s-16.33,6.58-16.33,20.69c0,20.25,14.16,33.2,29.14,46.91,17.76,16.25,37.89,34.67,37.89,68.76C456.13,379.23,437.68,399,404.18,399Zm-50.31-68.27v12.58c0,17.32,4.29,30.77,12.73,40s21.2,14.08,37.58,14.08,29-4.74,37.59-14.08,12.72-22.65,12.72-40c0-33.37-19-50.74-37.36-67.55-15.26-14-29.67-27.15-29.67-48.12,0-15,5.88-22.33,18-22.33s18,7.31,18,22.33v8.22h30.78v-6c0-17.33-4.22-30.79-12.53-40-8.44-9.34-20.94-14.07-37.16-14.07s-28.71,4.73-37.15,14.07c-8.31,9.19-12.53,22.65-12.53,40,0,33.37,19,50.74,37.36,67.55,15.26,14,29.67,27.14,29.67,48.11,0,14.82-6.08,22-18.59,22s-18.6-7.21-18.6-22V330.74ZM404.18,390c-14.22,0-25-3.93-32.13-11.67s-10.78-19.57-10.78-35v-5.19h16v7.37c0,9.71,2.27,16.91,7,22,4.52,4.92,10.92,7.41,19,7.41s14.51-2.49,19-7.41c4.68-5.1,7-12.3,7-22,0-24.22-16.31-39.14-32.08-53.57-8.69-7.95-17.67-16.17-24.27-26.09-7.29-11-10.68-22.41-10.68-36,0-15.44,3.57-27.23,10.62-35s17.63-11.64,31.66-11.64,24.69,3.92,31.67,11.64c6.71,7.41,10.27,18.46,10.6,32.82l0,.84h-16v-.82c0-11.11-3.3-29.74-25.37-29.74s-25.37,18.63-25.37,29.73c0,24.23,16.31,39.15,32.08,53.58,8.69,7.95,17.67,16.16,24.27,26.09,7.29,11,10.68,22.41,10.68,36,0,15.41-3.62,27.17-10.77,35S418.4,390,404.18,390Zm-41.26-50.19v3.54c0,15,3.48,26.38,10.34,33.87s17.18,11.14,30.92,11.14,24.15-3.75,30.92-11.14,10.35-18.89,10.35-33.87A60.67,60.67,0,0,0,435,308.23c-6.49-9.76-15.4-17.91-24-25.79-16-14.67-32.61-29.83-32.61-54.79,0-27.29,16.92-31.37,27-31.37s26.67,4,27,30.55h12.66c-.43-13.54-3.84-23.94-10.15-30.91-6.65-7.36-16.9-11.09-30.45-11.09s-23.79,3.73-30.44,11.09-10.2,18.9-10.2,33.92a60.67,60.67,0,0,0,10.41,35.09c6.49,9.76,15.4,17.9,24,25.79,16,14.66,32.61,29.83,32.61,54.78,0,10.14-2.42,17.71-7.39,23.12s-11.66,7.95-20.24,7.95-15.4-2.68-20.24-7.95-7.4-13-7.4-23.12v-5.72Z" transform="translate(-218.69 -174.14)" fill="#fff"/>
    </g>
  </g>
  <g>
    <g>
      <polygon points="292.78 217.03 292.78 29.97 256.93 29.97 256.93 7.84 353.89 7.84 353.89 29.97 318.04 29.97 318.04 217.03 292.78 217.03" fill="#d68a95"/>
      <path d="M537.55,392H510.66V204.94H474.8V181.16h98.61v23.78H537.55Zm-25.25-1.64h23.61V203.29h35.85V182.8H476.45v20.49H512.3Z" transform="translate(-218.69 -174.14)" fill="#fff"/>
    </g>
    <g>
      <path d="M568.07,186.5v13.1H532.21V386.66H516V199.6H480.14V186.5h87.93m9-9h-106v31.18H507V395.7h34.29V208.64h35.86V177.46Z" transform="translate(-218.69 -174.14)" fill="#fff"/>
      <path d="M542.07,396.52H506.14V209.46H470.28V176.64H577.93v32.82H542.07Zm-34.29-1.64h32.65V207.82h35.85V178.28H471.93v29.54h35.85Zm25.25-7.4H515.18V200.42H479.32V185.68h89.57v14.74H533Zm-16.21-1.65h14.57V198.77h35.85V187.32H481v11.45h35.85Z" transform="translate(-218.69 -174.14)" fill="#fff"/>
    </g>
  </g>
</svg>
